<svg width="40" height="40" viewBox="0 0 40 40" fill="none" xmlns="http://www.w3.org/2000/svg">
<circle cx="20" cy="20" r="19.75" fill="white" stroke="#BDBDBD" stroke-width="0.5"/>
<path fill-rule="evenodd" clip-rule="evenodd" d="M29.5999 20.1069C29.6007 19.4603 29.5442 18.8146 29.4313 18.1773H20.1941V21.8323H25.4847C25.266 23.0119 24.5593 24.0538 23.5284 24.7163V27.0888H26.6859C28.5347 25.4372 29.5999 22.9949 29.5999 20.1069Z" fill="#4285F4"/>
<path fill-rule="evenodd" clip-rule="evenodd" d="M20.194 29.3807C22.8372 29.3807 25.0628 28.5397 26.6858 27.0899L23.5282 24.7174C22.6495 25.2947 21.5177 25.6241 20.194 25.6241C17.6392 25.6241 15.4707 23.9555 14.6953 21.7068H11.4426V24.1518C13.1052 27.3574 16.4913 29.3804 20.194 29.3807Z" fill="#34A853"/>
<path fill-rule="evenodd" clip-rule="evenodd" d="M14.6953 21.707C14.2853 20.5288 14.2853 19.2527 14.6953 18.0744V15.6294H11.4426C10.052 18.3105 10.052 21.471 11.4426 24.1521L14.6953 21.707Z" fill="#FBBC04"/>
<path fill-rule="evenodd" clip-rule="evenodd" d="M20.194 14.1572C21.5908 14.1349 22.9404 14.6464 23.9514 15.5807L26.747 12.872C24.9743 11.2589 22.6258 10.3732 20.194 10.4006C16.4913 10.4007 13.1052 12.4239 11.4426 15.6293L14.6953 18.0744C15.4707 15.8258 17.6392 14.1572 20.194 14.1572Z" fill="#EA4335"/>
</svg>
