<svg width="40" height="40" viewBox="0 0 40 40" fill="none" xmlns="http://www.w3.org/2000/svg">
<circle cx="20" cy="20" r="19.75" fill="white" stroke="#BDBDBD" stroke-width="0.5"/>
<path fill-rule="evenodd" clip-rule="evenodd" d="M30 28.2727H25.8007V22.2007C25.8007 20.6113 25.1439 19.5263 23.6994 19.5263C22.5946 19.5263 21.9802 20.2585 21.6942 20.9641C21.587 21.2174 21.6037 21.5702 21.6037 21.9231V28.2727H17.4436C17.4436 28.2727 17.4972 17.5167 17.4436 16.539H21.6037V18.3805C21.8495 17.5753 23.1788 16.4261 25.3003 16.4261C27.9322 16.4261 30 18.1139 30 21.7483V28.2727ZM13.2365 15.0713H13.2097C11.8691 15.0713 11 14.1743 11 13.0373C11 11.8782 11.8948 11 13.2622 11C14.6284 11 15.4685 11.876 15.4953 13.034C15.4953 14.171 14.6284 15.0713 13.2365 15.0713ZM11.4792 16.539H15.1825V28.2727H11.4792V16.539Z" fill="#007EBB"/>
</svg>
