<svg width="40" height="40" viewBox="0 0 40 40" fill="none" xmlns="http://www.w3.org/2000/svg">
<circle cx="20" cy="20" r="19.75" fill="white" stroke="#BDBDBD" stroke-width="0.5"/>
<path fill-rule="evenodd" clip-rule="evenodd" d="M30 13.8744C29.3019 14.1923 28.5502 14.4073 27.7618 14.5034C28.5669 14.0093 29.1848 13.226 29.4758 12.2928C28.722 12.7502 27.8889 13.083 26.9989 13.2614C26.2897 12.4849 25.2759 12 24.154 12C22.0028 12 20.2574 13.7898 20.2574 15.9969C20.2574 16.3103 20.2909 16.6145 20.3578 16.9072C17.1181 16.7403 14.2464 15.1507 12.3226 12.7296C11.987 13.322 11.7951 14.0093 11.7951 14.7412C11.7951 16.1273 12.4832 17.351 13.5293 18.068C12.8914 18.0486 12.2892 17.8667 11.7628 17.5694V17.6186C11.7628 19.5559 13.1066 21.1718 14.891 21.5377C14.5642 21.6315 14.2196 21.6784 13.8639 21.6784C13.613 21.6784 13.3676 21.6544 13.1301 21.6075C13.6263 23.1948 15.065 24.351 16.7713 24.3819C15.4375 25.4546 13.7557 26.0939 11.9301 26.0939C11.6156 26.0939 11.3045 26.0756 11 26.039C12.7252 27.1712 14.775 27.8333 16.9753 27.8333C24.1462 27.8333 28.0662 21.7436 28.0662 16.4612C28.0662 16.2874 28.0629 16.1136 28.0562 15.9432C28.8179 15.3794 29.4792 14.6761 30 13.8744Z" fill="#00AAEC"/>
</svg>
