<svg width="500" height="318" viewBox="0 0 500 318" fill="none" xmlns="http://www.w3.org/2000/svg">
<path d="M500 302.99H0V303.24H500V302.99Z" fill="#EBEBEB"/>
<path d="M315.67 309.8H290.21V310.05H315.67V309.8Z" fill="#EBEBEB"/>
<path d="M455.44 315.21H395.11V315.46H455.44V315.21Z" fill="#EBEBEB"/>
<path d="M284.79 309.92H222.46V310.17H284.79V309.92Z" fill="#EBEBEB"/>
<path d="M182.04 317.4H169V317.65H182.04V317.4Z" fill="#EBEBEB"/>
<path d="M254.09 317.4H194.71V317.65H254.09V317.4Z" fill="#EBEBEB"/>
<path d="M90.91 313.18H52.46V313.43H90.91V313.18Z" fill="#EBEBEB"/>
<path d="M195.96 216.26H129.56L125.53 169.76H191.93L195.96 216.26Z" fill="#E6E6E6"/>
<path d="M199.4 216.26H133L128.97 169.76H195.37L199.4 216.26Z" fill="#F0F0F0"/>
<path d="M142.08 206.27L139.86 179.74H186.29L188.51 206.27H142.08Z" fill="white"/>
<path d="M210.89 216.26H203.1V302.99H210.89V216.26Z" fill="#E6E6E6"/>
<path d="M213.35 216.26H207.94V302.99H213.35V216.26Z" fill="#F0F0F0"/>
<path d="M137.94 225.83H213.35V216.26H137.94V225.83Z" fill="#F0F0F0"/>
<path d="M140.6 225.83H132.81V302.99H140.6V225.83Z" fill="#E6E6E6"/>
<path d="M143.06 225.83H137.65V302.99H143.06V225.83Z" fill="#F0F0F0"/>
<path d="M85.1504 225.83H77.3604V302.99H85.1504V225.83Z" fill="#E6E6E6"/>
<path d="M87.6102 225.83H82.2002V302.99H87.6102V225.83Z" fill="#F0F0F0"/>
<path d="M161.59 225.83H153.8V302.99H161.59V225.83Z" fill="#E6E6E6"/>
<path d="M164.04 225.83H158.63V302.99H164.04V225.83Z" fill="#F0F0F0"/>
<path d="M137.94 216.26H77.3604V225.83H137.94V216.26Z" fill="#E6E6E6"/>
<path d="M363.84 0H129.51V130.46H363.84V0Z" fill="#E0E0E0"/>
<path d="M376.71 0H130.69V130.46H376.71V0Z" fill="#F5F5F5"/>
<path d="M372.69 126.44V4.02002L134.71 4.02002V126.44L372.69 126.44Z" fill="white"/>
<path d="M231.07 126.44L276 4.02002H201.85L156.92 126.44H231.07Z" fill="#F5F5F5"/>
<path d="M302.44 126.44L347.37 4.02002H291.43L246.5 126.44H302.44Z" fill="#F5F5F5"/>
<path d="M438.11 178.39H418.19V302.99H438.11V178.39Z" fill="#E6E6E6"/>
<path d="M432.87 302.99H438.11V293.4H427.38L432.87 302.99Z" fill="#FAFAFA"/>
<path d="M254.45 178.39H234.53V302.99H254.45V178.39Z" fill="#E6E6E6"/>
<path d="M438.11 178.39H249.88V300.4H438.11V178.39Z" fill="#FAFAFA"/>
<path d="M434.55 217.76H253.45V183.3H434.55V217.76ZM254.45 216.76H433.55V184.3H254.45V216.76Z" fill="#E6E6E6"/>
<path d="M402.67 200.03H288.84C283.56 200.03 278.47 195.77 274.84 188.33L274.5 187.62H417L416.66 188.33C413 195.77 408 200.03 402.67 200.03ZM276.14 188.59C279.52 195.22 284.14 199 288.84 199H402.67C407.39 199 411.99 195.22 415.37 188.59H276.14Z" fill="#E6E6E6"/>
<path d="M255.12 302.99H249.88V293.4H260.61L255.12 302.99Z" fill="#FAFAFA"/>
<path d="M434.55 256.59H253.45V222.17H434.55V256.59ZM254.45 255.59H433.55V223.17H254.45V255.59Z" fill="#E6E6E6"/>
<path d="M402.67 238.9H288.84C283.56 238.9 278.47 234.63 274.84 227.2L274.5 226.48H417L416.66 227.2C413 234.59 408 238.9 402.67 238.9ZM276.14 227.48C279.52 234.11 284.14 237.9 288.84 237.9H402.67C407.39 237.9 411.99 234.11 415.37 227.48H276.14Z" fill="#E6E6E6"/>
<path d="M434.55 295.49H253.45V261.03H434.55V295.49ZM254.45 294.49H433.55V262.03H254.45V294.49Z" fill="#E6E6E6"/>
<path d="M402.67 277.76H288.84C283.56 277.76 278.47 273.5 274.84 266.07L274.5 265.35H417L416.66 266.07C413 273.5 408 277.76 402.67 277.76ZM276.14 266.35C279.52 272.98 284.14 276.76 288.84 276.76H402.67C407.39 276.76 411.99 272.98 415.37 266.35H276.14Z" fill="#E6E6E6"/>
<path d="M120.98 194.87V197.29H119.44L118.16 216.26H99.32L98.05 197.29H96.5V194.87H120.98Z" fill="#E6E6E6"/>
<path d="M114.78 147.8C113.24 136.5 97.9901 133.28 78.6401 132.86C60.2301 132.47 54.3301 125.96 54.3301 125.96C54.3301 125.96 54.3901 152.33 80.9201 161.89C106.11 170.95 116.33 159.12 114.78 147.8Z" fill="#E6E6E6"/>
<path d="M105.38 173.41C105.7 168.77 113.12 160.23 130.97 164.11C143.87 166.92 148.67 160.23 148.67 160.23C148.67 160.23 147.47 179.11 128.07 184.78C109.64 190.17 104.81 181.59 105.38 173.41Z" fill="#E6E6E6"/>
<path d="M109.45 201.99C109.551 201.991 109.65 201.97 109.742 201.929C109.833 201.887 109.914 201.826 109.98 201.75C111.27 200.22 110.21 196.56 108.75 191.49C106.87 184.99 104.53 176.89 106.51 171.02C107.608 167.919 108.89 164.887 110.35 161.94C113.15 156.02 115.57 150.94 113.55 145.56C113.519 145.474 113.47 145.396 113.408 145.329C113.346 145.262 113.272 145.208 113.189 145.17C113.106 145.133 113.016 145.112 112.925 145.109C112.834 145.106 112.743 145.121 112.658 145.153C112.572 145.186 112.494 145.235 112.428 145.297C112.362 145.36 112.309 145.435 112.272 145.519C112.235 145.602 112.215 145.692 112.213 145.783C112.211 145.874 112.227 145.965 112.26 146.05C114.07 150.84 111.88 155.48 109.1 161.36C107.621 164.355 106.319 167.433 105.2 170.58C103.09 176.86 105.49 185.19 107.42 191.87C108.56 195.87 109.74 199.87 108.93 200.87C108.866 200.939 108.817 201.021 108.785 201.11C108.754 201.199 108.742 201.294 108.75 201.388C108.757 201.482 108.784 201.573 108.829 201.656C108.874 201.739 108.936 201.812 109.01 201.87C109.138 201.961 109.294 202.004 109.45 201.99Z" fill="#E6E6E6"/>
<path d="M273.358 273.436L132.191 288.794L99.7668 62.604L240.934 47.2457L273.358 273.436Z" fill="#407BFF"/>
<path d="M279.64 265.62L138.473 280.979L106.038 54.7898L247.205 39.4315L279.64 265.62Z" fill="#407BFF"/>
<path opacity="0.3" d="M279.64 265.62L138.473 280.979L106.038 54.7898L247.205 39.4315L279.64 265.62Z" fill="white"/>
<path d="M217.806 137.159C231.248 120.138 227.869 95.0663 210.26 81.1586C192.65 67.2509 167.478 69.7741 154.035 86.7943C140.593 103.814 143.972 128.886 161.581 142.794C179.191 156.702 204.363 154.179 217.806 137.159Z" fill="#407BFF"/>
<path d="M218.7 108.419C219.492 113.807 218.896 119.307 216.968 124.4C214.887 129.889 211.317 134.69 206.66 138.263C202.003 141.836 196.442 144.041 190.602 144.631C184.625 145.248 178.592 144.283 173.106 141.833C167.621 139.382 162.876 135.532 159.348 130.669C156.068 126.218 153.941 121.024 153.157 115.55C152.51 111.31 152.732 106.983 153.809 102.832C154.886 98.6803 156.796 94.7912 159.423 91.4007C162.049 88.0103 165.338 85.1892 169.089 83.109C172.839 81.0288 176.974 79.7329 181.241 79.2999C190.031 78.4064 198.827 80.9335 205.803 86.3562C212.779 91.7788 217.397 99.6802 218.7 108.419Z" fill="white"/>
<path opacity="0.6" d="M216.948 124.402C214.867 129.891 211.297 134.692 206.64 138.265C201.983 141.838 196.422 144.044 190.582 144.633C184.605 145.25 178.572 144.285 173.086 141.835C167.601 139.384 162.856 135.534 159.328 130.671C167.112 124.024 176.729 119.895 186.909 118.829C197.251 117.726 207.69 119.663 216.948 124.402Z" fill="#407BFF"/>
<path opacity="0.6" d="M196.046 110.057C200.989 103.798 199.746 94.579 193.271 89.465C186.796 84.351 177.54 85.2788 172.597 91.5374C167.654 97.7959 168.896 107.015 175.372 112.129C181.847 117.243 191.103 116.315 196.046 110.057Z" fill="#407BFF"/>
<path d="M242.332 186.491L152.284 196.288L149.731 178.46L239.779 168.663L242.332 186.491Z" fill="white"/>
<path d="M246.905 218.353L156.847 228.151L154.294 210.323L244.352 200.525L246.905 218.353Z" fill="white"/>
<path d="M210.472 206.706L189.094 212.049C188.89 212.095 188.697 212.183 188.528 212.307C188.359 212.432 188.218 212.589 188.113 212.771C188.008 212.952 187.942 213.154 187.918 213.362C187.895 213.57 187.915 213.781 187.977 213.981L192.412 228.215C192.552 228.632 192.843 228.981 193.227 229.194C193.611 229.408 194.062 229.469 194.489 229.367L215.867 224.024C216.07 223.975 216.262 223.885 216.43 223.76C216.597 223.634 216.737 223.475 216.841 223.293C216.945 223.111 217.01 222.91 217.033 222.702C217.055 222.494 217.035 222.283 216.973 222.083L212.548 207.848C212.408 207.432 212.117 207.084 211.732 206.872C211.348 206.661 210.898 206.601 210.472 206.706ZM205.842 222.117L201.922 223.076L201.024 218.426C200.595 218.294 200.204 218.06 199.885 217.744C199.565 217.429 199.326 217.042 199.187 216.614C199.078 216.284 199.038 215.934 199.072 215.587C199.106 215.24 199.212 214.904 199.384 214.601C199.556 214.298 199.789 214.034 200.07 213.827C200.35 213.62 200.67 213.474 201.01 213.398C201.706 213.231 202.44 213.33 203.067 213.677C203.693 214.025 204.166 214.594 204.393 215.273C204.525 215.684 204.546 216.123 204.454 216.544C204.362 216.966 204.16 217.356 203.87 217.674L205.842 222.117Z" fill="#407BFF"/>
<path d="M208.239 206.154C207.861 206.244 207.462 206.19 207.122 206.002C206.781 205.814 206.523 205.506 206.398 205.137L205.965 203.746C205.357 201.849 204.081 200.237 202.375 199.209C200.669 198.182 198.648 197.807 196.686 198.157C195.696 198.322 194.752 198.698 193.92 199.261C193.087 199.823 192.386 200.558 191.862 201.416C191.339 202.273 191.007 203.233 190.888 204.231C190.768 205.228 190.865 206.239 191.172 207.196L191.668 208.802C191.725 208.979 191.744 209.167 191.724 209.353C191.704 209.538 191.646 209.717 191.553 209.879C191.46 210.041 191.334 210.181 191.183 210.291C191.032 210.402 190.861 210.479 190.678 210.519C190.3 210.614 189.899 210.562 189.557 210.374C189.216 210.185 188.958 209.873 188.837 209.502L188.419 208.149C188.005 206.888 187.851 205.555 187.966 204.232C188.08 202.91 188.461 201.624 189.085 200.452C189.709 199.28 190.564 198.246 191.598 197.413C192.632 196.58 193.823 195.964 195.101 195.603C197.872 194.822 200.837 195.138 203.381 196.485C205.925 197.832 207.852 200.107 208.764 202.838L209.259 204.434C209.316 204.614 209.335 204.804 209.313 204.991C209.292 205.179 209.231 205.36 209.135 205.522C209.038 205.685 208.909 205.825 208.754 205.934C208.6 206.043 208.424 206.118 208.239 206.154Z" fill="#407BFF"/>
<path d="M234.77 245.033L176.146 251.411L174.49 239.802L233.105 233.425L234.77 245.033Z" fill="#407BFF"/>
<path d="M199.307 182.119C199.371 182.542 199.348 182.974 199.24 183.388C199.132 183.802 198.941 184.189 198.679 184.527C198.416 184.865 198.088 185.147 197.714 185.354C197.34 185.561 196.927 185.69 196.502 185.734C195.624 185.822 194.747 185.57 194.049 185.03C193.352 184.49 192.889 183.703 192.756 182.832C192.692 182.409 192.715 181.977 192.823 181.563C192.931 181.149 193.122 180.761 193.384 180.423C193.647 180.085 193.975 179.804 194.349 179.597C194.723 179.39 195.136 179.26 195.561 179.217C196.439 179.126 197.318 179.377 198.016 179.917C198.714 180.458 199.176 181.246 199.307 182.119Z" fill="#263238"/>
<path d="M185.171 183.657C185.236 184.08 185.214 184.512 185.107 184.927C184.999 185.342 184.808 185.73 184.546 186.068C184.283 186.407 183.954 186.688 183.579 186.895C183.205 187.102 182.791 187.23 182.365 187.272C181.489 187.36 180.612 187.108 179.917 186.567C179.221 186.027 178.76 185.24 178.629 184.369C178.565 183.946 178.588 183.514 178.696 183.1C178.804 182.686 178.995 182.298 179.258 181.96C179.52 181.622 179.848 181.341 180.222 181.134C180.597 180.927 181.009 180.797 181.435 180.754C182.312 180.663 183.19 180.914 183.886 181.455C184.582 181.996 185.042 182.785 185.171 183.657Z" fill="#263238"/>
<path d="M171.123 185.185C171.187 185.608 171.164 186.04 171.056 186.454C170.948 186.868 170.757 187.256 170.495 187.594C170.233 187.932 169.905 188.213 169.53 188.42C169.156 188.627 168.744 188.757 168.318 188.8C167.441 188.891 166.563 188.64 165.867 188.099C165.171 187.558 164.711 186.769 164.582 185.897C164.518 185.474 164.541 185.042 164.649 184.628C164.757 184.214 164.948 183.827 165.21 183.489C165.473 183.151 165.801 182.869 166.175 182.662C166.55 182.455 166.962 182.326 167.388 182.282C168.264 182.191 169.142 182.443 169.839 182.984C170.535 183.524 170.995 184.313 171.123 185.185Z" fill="#263238"/>
<path d="M213.394 180.586C213.458 181.009 213.435 181.441 213.327 181.855C213.219 182.269 213.028 182.657 212.766 182.995C212.503 183.333 212.175 183.614 211.801 183.821C211.427 184.029 211.014 184.158 210.589 184.201C209.712 184.292 208.834 184.041 208.138 183.5C207.442 182.959 206.981 182.17 206.853 181.298C206.792 180.876 206.817 180.446 206.927 180.034C207.038 179.622 207.23 179.237 207.494 178.901C207.757 178.566 208.086 178.288 208.461 178.083C208.835 177.879 209.247 177.753 209.671 177.712C210.542 177.624 211.413 177.873 212.105 178.408C212.798 178.942 213.259 179.722 213.394 180.586Z" fill="#263238"/>
<path d="M227.481 179.054C227.546 179.477 227.524 179.909 227.417 180.324C227.309 180.738 227.119 181.127 226.856 181.465C226.593 181.803 226.265 182.084 225.89 182.291C225.515 182.498 225.102 182.627 224.675 182.668C223.799 182.757 222.922 182.505 222.227 181.964C221.531 181.424 221.07 180.636 220.94 179.765C220.876 179.342 220.899 178.911 221.007 178.497C221.115 178.083 221.306 177.695 221.568 177.357C221.83 177.019 222.158 176.738 222.533 176.531C222.907 176.323 223.319 176.194 223.745 176.151C224.622 176.06 225.5 176.311 226.196 176.852C226.892 177.393 227.352 178.182 227.481 179.054Z" fill="#263238"/>
<path d="M311.11 101.59C331.042 101.59 347.2 91.2925 347.2 78.59C347.2 65.8874 331.042 55.59 311.11 55.59C291.178 55.59 275.02 65.8874 275.02 78.59C275.02 91.2925 291.178 101.59 311.11 101.59Z" fill="#407BFF"/>
<path d="M298.09 90.17C295.713 90.1623 293.414 89.317 291.598 87.7826C289.782 86.2482 288.564 84.1228 288.16 81.78C287.762 79.2422 288.335 76.6478 289.763 74.513C291.192 72.3783 293.372 70.8598 295.87 70.26C297.92 69.7877 300.066 69.9697 302.007 70.7805C303.947 71.5913 305.585 72.99 306.69 74.78L329.86 70C330.75 69.805 331.682 69.953 332.468 70.4146C333.254 70.8762 333.837 71.6173 334.1 72.49C334.221 72.9488 334.248 73.4274 334.178 73.8968C334.108 74.3661 333.943 74.8163 333.693 75.2197C333.443 75.6231 333.113 75.9713 332.724 76.243C332.335 76.5147 331.895 76.7042 331.43 76.8L330.83 76.92C330.741 76.936 330.657 76.9722 330.584 77.026C330.511 77.0797 330.452 77.1495 330.41 77.23C330.373 77.3116 330.354 77.4003 330.354 77.49C330.354 77.5796 330.373 77.6683 330.41 77.75L330.82 78.81C330.957 79.1535 330.971 79.5343 330.857 79.8866C330.744 80.2389 330.512 80.5407 330.2 80.74C329.954 80.8919 329.746 81.0978 329.592 81.3421C329.438 81.5865 329.341 81.8627 329.31 82.15C329.281 82.4796 329.148 82.7915 328.93 83.0412C328.713 83.2908 328.422 83.4654 328.1 83.54L327.63 83.64C327.304 83.7002 326.968 83.6551 326.669 83.5113C326.371 83.3674 326.126 83.1323 325.97 82.84C325.762 82.4912 325.451 82.2158 325.08 82.0524C324.708 81.8889 324.295 81.8454 323.898 81.9279C323.5 82.0105 323.138 82.215 322.863 82.5129C322.587 82.8109 322.411 83.1874 322.36 83.59C322.332 83.9175 322.201 84.2277 321.985 84.4758C321.769 84.7239 321.481 84.8969 321.16 84.97L320.69 85.07C320.364 85.1286 320.028 85.0828 319.73 84.9391C319.432 84.7954 319.187 84.5612 319.03 84.27C318.88 84.022 318.678 83.8094 318.438 83.6471C318.198 83.4848 317.926 83.3766 317.64 83.33C317.255 83.2837 316.901 83.0986 316.643 82.8096C316.385 82.5205 316.242 82.1473 316.24 81.76V80.62C316.236 80.5308 316.213 80.4435 316.172 80.3642C316.131 80.2848 316.073 80.2152 316.003 80.1601C315.933 80.1051 315.852 80.0658 315.765 80.0451C315.678 80.0243 315.588 80.0226 315.5 80.04L308.11 81.56C307.809 83.6073 306.884 85.5121 305.461 87.0151C304.039 88.5181 302.188 89.5464 300.16 89.96C299.479 90.0992 298.785 90.1696 298.09 90.17ZM296.09 71.17C293.822 71.6998 291.839 73.0693 290.54 75.0027C289.241 76.9361 288.723 79.2899 289.09 81.59C289.483 83.7298 290.629 85.6583 292.321 87.0265C294.013 88.3947 296.138 89.1123 298.313 89.0495C300.488 88.9867 302.568 88.1476 304.178 86.684C305.788 85.2204 306.821 83.229 307.09 81.07V80.71L315.24 79.06C315.474 79.0034 315.717 78.9996 315.953 79.0489C316.188 79.0981 316.41 79.1992 316.601 79.3448C316.793 79.4903 316.949 79.6767 317.06 79.8903C317.17 80.104 317.232 80.3396 317.24 80.58V81.72C317.242 81.8557 317.291 81.9865 317.379 82.0903C317.466 82.1942 317.587 82.2647 317.72 82.29C318.157 82.3526 318.574 82.5139 318.94 82.7617C319.305 83.0094 319.61 83.3371 319.83 83.72C319.883 83.8279 319.968 83.9166 320.074 83.974C320.18 84.0313 320.301 84.0544 320.42 84.04L320.88 83.94C320.997 83.91 321.1 83.8432 321.176 83.7495C321.252 83.6558 321.295 83.5403 321.3 83.42C321.363 82.7975 321.622 82.2111 322.04 81.7456C322.459 81.2802 323.014 80.9597 323.626 80.8306C324.238 80.7015 324.876 80.7704 325.446 81.0273C326.017 81.2842 326.491 81.7159 326.8 82.26C326.851 82.3671 326.935 82.4555 327.039 82.5129C327.143 82.5702 327.262 82.5937 327.38 82.58L327.86 82.48C327.975 82.4481 328.076 82.3806 328.15 82.2871C328.224 82.1935 328.266 82.079 328.27 81.96C328.319 81.5209 328.469 81.099 328.706 80.7263C328.943 80.3537 329.263 80.0403 329.64 79.81C329.75 79.7305 329.831 79.6165 329.869 79.4861C329.907 79.3556 329.9 79.2162 329.85 79.09L329.44 78.03C329.355 77.8114 329.319 77.577 329.334 77.3431C329.35 77.1092 329.416 76.8815 329.528 76.6758C329.64 76.4701 329.796 76.2914 329.985 76.1522C330.174 76.013 330.39 75.9167 330.62 75.87L331.23 75.74C331.56 75.6696 331.873 75.5333 332.149 75.3393C332.425 75.1454 332.659 74.8977 332.838 74.6111C333.016 74.3245 333.135 74.0048 333.187 73.6713C333.239 73.3378 333.223 72.9972 333.14 72.67C332.945 72.0406 332.519 71.5084 331.948 71.1801C331.376 70.8518 330.702 70.7517 330.06 70.9L306.24 75.85L306.06 75.54C305.103 73.8362 303.617 72.4903 301.828 71.7055C300.038 70.9208 298.042 70.7398 296.14 71.19L296.09 71.17ZM298.09 86.45C296.848 86.4638 295.628 86.1164 294.58 85.45C293.34 84.6359 292.421 83.4169 291.979 82.0008C291.537 80.5847 291.6 79.0593 292.157 77.6844C292.714 76.3096 293.731 75.1705 295.034 74.4614C296.337 73.7523 297.845 73.517 299.302 73.7957C300.759 74.0744 302.074 74.8497 303.024 75.9896C303.973 77.1295 304.497 78.5634 304.508 80.0467C304.518 81.5301 304.014 82.9711 303.08 84.1242C302.147 85.2773 300.843 86.0709 299.39 86.37C298.964 86.447 298.532 86.4805 298.1 86.47L298.09 86.45ZM298.09 74.64C297.717 74.6421 297.346 74.6789 296.98 74.75C296.283 74.8984 295.623 75.1825 295.036 75.5862C294.449 75.9899 293.947 76.5052 293.56 77.1028C293.172 77.7003 292.906 78.3684 292.776 79.0688C292.647 79.7692 292.657 80.4883 292.805 81.185C292.953 81.8816 293.238 82.5422 293.641 83.1291C294.045 83.7159 294.56 84.2175 295.158 84.6052C295.755 84.9929 296.423 85.2591 297.124 85.3886C297.824 85.5181 298.543 85.5084 299.24 85.36C300.286 85.1422 301.244 84.6198 301.993 83.8584C302.742 83.0971 303.25 82.1309 303.451 81.0818C303.652 80.0326 303.538 78.9474 303.123 77.963C302.708 76.9785 302.011 76.1389 301.12 75.55C300.235 74.9612 299.193 74.6512 298.13 74.66L298.09 74.64Z" fill="white"/>
<path opacity="0.6" d="M281.74 115.08C288.29 115.08 293.6 111.695 293.6 107.52C293.6 103.345 288.29 99.96 281.74 99.96C275.19 99.96 269.88 103.345 269.88 107.52C269.88 111.695 275.19 115.08 281.74 115.08Z" fill="#407BFF"/>
<path opacity="0.3" d="M262.87 118.18C265.56 118.18 267.74 116.792 267.74 115.08C267.74 113.368 265.56 111.98 262.87 111.98C260.18 111.98 258 113.368 258 115.08C258 116.792 260.18 118.18 262.87 118.18Z" fill="#407BFF"/>
</svg>
