<svg width="395" height="367" viewBox="0 0 395 367" fill="none" xmlns="http://www.w3.org/2000/svg">
<path d="M58.018 339.472C135.025 376.171 259.873 376.182 336.881 339.472C413.888 302.762 413.877 243.265 336.881 206.566C259.885 169.867 135.025 169.867 58.018 206.566C-18.9895 243.265 -18.9783 302.773 58.018 339.472Z" fill="#F5F5F5" fill-opacity="0.6"/>
<path d="M336.613 312.35C350.796 312.35 362.293 306.871 362.293 300.113C362.293 293.355 350.796 287.876 336.613 287.876C322.43 287.876 310.933 293.355 310.933 300.113C310.933 306.871 322.43 312.35 336.613 312.35Z" fill="#EBEBEB"/>
<path d="M52.174 301.867L61.2593 296.626C66.3319 292.487 70.1928 287.055 72.4344 280.903C75.2393 273.17 74.8482 267.292 72.8367 264.342C70.367 260.71 63.9637 261.347 63.7067 268.99C63.1703 284.054 58.7785 294.503 52.174 301.867Z" fill="#8AADFD"/>
<path opacity="0.2" d="M52.174 301.867L61.2593 296.626C66.3319 292.487 70.1928 287.055 72.4344 280.903C75.2393 273.17 74.8482 267.292 72.8367 264.342C70.367 260.71 63.9637 261.347 63.7067 268.99C63.1703 284.054 58.7785 294.503 52.174 301.867Z" fill="black"/>
<path d="M52.1748 302.426C52.0565 302.425 51.9417 302.386 51.8469 302.315C51.7522 302.244 51.6824 302.145 51.6476 302.032C51.6128 301.919 51.6148 301.798 51.6533 301.686C51.6918 301.574 51.7648 301.477 51.8619 301.409C72.871 286.882 68.8033 266.621 68.7586 266.42C68.7432 266.347 68.7424 266.271 68.7562 266.197C68.7701 266.124 68.7983 266.053 68.8393 265.991C68.8803 265.928 68.9332 265.874 68.9951 265.831C69.057 265.789 69.1266 265.759 69.2 265.744C69.2734 265.729 69.3491 265.728 69.4228 265.742C69.4965 265.755 69.5667 265.784 69.6295 265.825C69.6922 265.866 69.7463 265.919 69.7887 265.981C69.831 266.042 69.8607 266.112 69.8761 266.185C69.8761 266.398 74.1673 287.351 52.5324 302.326C52.4274 302.397 52.3018 302.433 52.1748 302.426Z" fill="white"/>
<path d="M33.9701 312.383C33.9701 312.383 30.8076 309.813 31.5675 306.326C32.3274 302.84 34.3724 300.337 30.8746 295.844C27.3768 291.352 26.4046 285.362 30.5841 282.121C33.769 279.607 38.7419 283.16 40.5299 276.534C41.8486 271.684 41.4016 260.944 47.5814 257.368C53.7612 253.792 57.6389 259.179 56.6667 266.465C55.8174 272.98 54.6105 279.249 55.5492 280.992C57.3596 284.345 60.4551 283.887 60.3098 290.011C60.1869 295.71 54.7893 300.426 54.7893 300.426L33.9701 312.383Z" fill="#8AADFD"/>
<path d="M44.3522 306.919C44.2156 306.917 44.0841 306.867 43.9815 306.777C43.879 306.686 43.8122 306.562 43.7935 306.427C42.1955 293.184 46.0285 270.32 49.1575 263.526C49.1839 263.45 49.2261 263.382 49.2813 263.324C49.3364 263.266 49.4033 263.221 49.4775 263.191C49.5516 263.162 49.6312 263.148 49.711 263.152C49.7907 263.156 49.8687 263.176 49.9398 263.213C50.0065 263.243 50.0665 263.286 50.1163 263.34C50.166 263.393 50.2046 263.456 50.2296 263.525C50.2546 263.594 50.2655 263.667 50.2618 263.74C50.2581 263.813 50.2398 263.885 50.208 263.95C47.1125 270.655 43.4135 293.587 44.9445 306.248C44.9602 306.395 44.9174 306.542 44.8253 306.657C44.7332 306.772 44.5993 306.846 44.4528 306.863L44.3522 306.919Z" fill="white"/>
<path d="M44.0504 296.604C43.9649 296.608 43.8799 296.589 43.8045 296.548C39.9268 294.66 37.4683 287.921 37.3677 287.608C37.3403 287.539 37.3271 287.464 37.329 287.39C37.3308 287.315 37.3476 287.241 37.3783 287.173C37.4091 287.105 37.4532 287.044 37.508 286.993C37.5628 286.943 37.6272 286.903 37.6975 286.878C37.7677 286.853 37.8424 286.841 37.917 286.845C37.9916 286.849 38.0647 286.868 38.1318 286.901C38.199 286.933 38.259 286.979 38.3082 287.036C38.3573 287.092 38.3947 287.157 38.4182 287.228C38.4182 287.295 40.8208 293.822 44.2962 295.509C44.4102 295.564 44.5021 295.657 44.5568 295.771C44.6114 295.885 44.6256 296.014 44.597 296.138C44.5685 296.261 44.4988 296.371 44.3995 296.45C44.3002 296.529 44.1771 296.571 44.0504 296.571V296.604Z" fill="white"/>
<path d="M43.9825 301.074C43.8705 301.074 43.7612 301.04 43.6693 300.976C43.5774 300.912 43.5073 300.822 43.4684 300.716C43.4128 300.58 43.4133 300.427 43.4698 300.291C43.5263 300.155 43.6343 300.047 43.7702 299.99C50.2964 297.375 54.3641 289.608 54.4088 289.519C54.477 289.387 54.5948 289.288 54.7362 289.243C54.8777 289.198 55.0313 289.211 55.1632 289.279C55.295 289.347 55.3945 289.465 55.4395 289.606C55.4846 289.748 55.4716 289.901 55.4034 290.033C55.2246 290.368 51.101 298.258 44.2283 301.029C44.1518 301.066 44.0669 301.081 43.9825 301.074Z" fill="white"/>
<path d="M272.1 240.952C272.1 240.952 267.217 233.04 266.736 224.447C266.256 215.853 268.144 212.277 270.737 211.249C273.33 210.221 273.531 213.383 274.86 215.25C276.19 217.116 278.906 216.054 279.912 210.232C280.917 204.41 284.583 194.587 292.204 192.676C300.586 190.597 296.093 200.431 293.981 204.264C291.869 208.097 290.237 213.327 291.623 214.747C293.009 216.166 295.166 213.54 297.211 215.976C299.703 218.915 291.958 229.498 287.511 232.057L272.1 240.952Z" fill="#8AADFD"/>
<path d="M278.793 237.633C278.72 237.63 278.648 237.613 278.581 237.582C278.515 237.551 278.455 237.508 278.405 237.454C278.355 237.4 278.316 237.337 278.291 237.268C278.265 237.199 278.254 237.125 278.257 237.052C279.014 223.228 283.325 209.833 290.773 198.163C290.815 198.102 290.869 198.05 290.932 198.011C290.995 197.972 291.065 197.946 291.138 197.934C291.211 197.923 291.286 197.926 291.357 197.944C291.429 197.962 291.497 197.995 291.555 198.04C291.672 198.127 291.751 198.256 291.774 198.4C291.797 198.544 291.763 198.692 291.678 198.811C284.363 210.311 280.13 223.499 279.386 237.108C279.381 237.181 279.363 237.253 279.331 237.319C279.298 237.386 279.254 237.445 279.199 237.493C279.144 237.542 279.079 237.58 279.01 237.604C278.94 237.628 278.867 237.638 278.793 237.633Z" fill="white"/>
<path d="M279.431 231.029C279.337 231.028 279.245 231.005 279.162 230.962C276.033 229.229 274.301 224.089 274.234 223.877C274.21 223.807 274.199 223.733 274.203 223.659C274.207 223.585 274.226 223.513 274.258 223.447C274.29 223.38 274.335 223.321 274.391 223.272C274.446 223.223 274.511 223.185 274.581 223.161C274.721 223.116 274.875 223.127 275.007 223.195C275.139 223.262 275.239 223.378 275.285 223.519C275.285 223.519 276.961 228.47 279.755 229.978C279.881 230.053 279.974 230.174 280.014 230.315C280.053 230.457 280.037 230.608 279.967 230.738C279.917 230.834 279.839 230.913 279.743 230.965C279.648 231.017 279.539 231.039 279.431 231.029Z" fill="white"/>
<path d="M279.978 227.643C279.854 227.641 279.735 227.599 279.638 227.522C279.54 227.445 279.472 227.338 279.442 227.218C279.424 227.147 279.419 227.074 279.43 227.002C279.44 226.93 279.465 226.861 279.502 226.798C279.54 226.736 279.589 226.681 279.648 226.638C279.707 226.595 279.773 226.564 279.844 226.547C287.913 224.502 290.706 220.278 290.729 220.233C290.768 220.171 290.82 220.117 290.88 220.075C290.941 220.032 291.009 220.002 291.081 219.986C291.153 219.97 291.228 219.968 291.301 219.981C291.373 219.994 291.443 220.021 291.505 220.06C291.568 220.1 291.622 220.151 291.664 220.212C291.707 220.272 291.737 220.341 291.753 220.413C291.769 220.485 291.771 220.559 291.758 220.632C291.745 220.705 291.718 220.775 291.679 220.837C291.556 221.027 288.65 225.463 280.124 227.631L279.978 227.643Z" fill="white"/>
<path d="M150.515 223.586C150.515 223.586 139.799 220.971 139.24 200.901C138.648 179.243 141.866 153.965 129.182 151.92C116.499 149.875 109.458 165.33 109.615 183.378C109.76 199.18 116.13 233.487 150.471 240.215L150.515 223.586Z" fill="#8AADFD"/>
<path opacity="0.2" d="M150.515 223.586C150.515 223.586 139.799 220.971 139.24 200.901C138.648 179.243 141.866 153.965 129.182 151.92C116.499 149.875 109.458 165.33 109.615 183.378C109.76 199.18 116.13 233.487 150.471 240.215L150.515 223.586Z" fill="black"/>
<path d="M150.515 238.158H150.415C142.693 236.75 136.401 232.493 131.719 225.519C117.839 204.812 122.209 166.146 123.65 159.396C123.683 159.253 123.769 159.127 123.892 159.046C124.015 158.964 124.165 158.934 124.31 158.961C124.454 158.995 124.58 159.084 124.661 159.209C124.742 159.334 124.773 159.485 124.746 159.631C123.326 166.336 118.979 204.51 132.646 224.894C134.636 228.055 137.26 230.768 140.354 232.861C143.447 234.954 146.942 236.381 150.616 237.052C150.689 237.065 150.758 237.093 150.82 237.134C150.883 237.174 150.936 237.227 150.978 237.288C151.019 237.349 151.048 237.418 151.063 237.491C151.077 237.564 151.077 237.639 151.063 237.711C151.039 237.839 150.971 237.953 150.871 238.035C150.771 238.117 150.645 238.161 150.515 238.158Z" fill="white"/>
<path d="M150.515 289.664C139.44 291.162 121.46 291.139 111.078 282.959C100.696 274.779 102.864 267.739 106.854 264.8C110.843 261.861 114.308 258.508 107.446 251.982C100.585 245.456 89.5659 234.973 85.9899 219.25C82.4138 203.527 84.1795 193.693 91.1975 190.418C98.0031 187.245 99.8023 192.296 103.971 202.711C108.139 213.126 117.515 204.197 125.538 207.449C133.562 210.701 133.238 217.138 133.741 222.67C134.244 228.201 136.892 229.732 141.441 229.732C145.989 229.732 150.515 232.347 150.515 237.555V289.664Z" fill="#8AADFD"/>
<path d="M150.515 271.404C150.467 271.415 150.417 271.415 150.369 271.404C149.889 271.27 138.434 267.94 121.75 252.619C103.982 236.303 95.6002 211.83 95.5108 211.584C95.468 211.443 95.4813 211.291 95.5479 211.16C95.6146 211.029 95.7294 210.928 95.8684 210.88C96.0078 210.834 96.1597 210.844 96.2915 210.909C96.4232 210.974 96.5242 211.088 96.5724 211.226C96.6507 211.472 104.954 235.677 122.51 251.792C138.96 266.912 150.548 270.298 150.671 270.331C150.741 270.352 150.807 270.386 150.864 270.432C150.922 270.478 150.969 270.535 151.004 270.599C151.04 270.663 151.062 270.734 151.07 270.807C151.078 270.88 151.071 270.954 151.051 271.024C151.015 271.137 150.943 271.235 150.846 271.304C150.749 271.372 150.633 271.407 150.515 271.404Z" fill="white"/>
<path d="M126.41 256.508C126.297 256.51 126.187 256.476 126.095 256.412C126.003 256.348 125.933 256.256 125.896 256.15C122.309 246.942 121.493 227.24 121.426 226.402C121.423 226.255 121.477 226.112 121.577 226.004C121.677 225.895 121.815 225.83 121.962 225.821C122.108 225.823 122.248 225.879 122.355 225.978C122.463 226.077 122.53 226.212 122.543 226.358C122.543 226.559 123.381 246.707 126.902 255.748C126.928 255.817 126.941 255.891 126.94 255.965C126.938 256.038 126.921 256.111 126.891 256.179C126.861 256.247 126.818 256.307 126.764 256.358C126.71 256.409 126.647 256.448 126.577 256.474C126.524 256.494 126.467 256.505 126.41 256.508Z" fill="white"/>
<path d="M126.321 269.75C125.29 269.758 124.261 269.706 123.236 269.594C123.163 269.585 123.092 269.562 123.028 269.526C122.963 269.489 122.907 269.441 122.861 269.383C122.815 269.325 122.781 269.258 122.762 269.187C122.742 269.116 122.736 269.041 122.745 268.968C122.753 268.895 122.777 268.824 122.813 268.759C122.849 268.695 122.898 268.638 122.956 268.593C123.014 268.547 123.08 268.513 123.152 268.493C123.223 268.473 123.297 268.468 123.37 268.476C123.471 268.476 133.875 269.661 138.647 264.8C138.697 264.741 138.758 264.693 138.827 264.659C138.896 264.625 138.971 264.606 139.048 264.602C139.125 264.599 139.202 264.611 139.274 264.639C139.346 264.666 139.411 264.708 139.466 264.762C139.521 264.816 139.564 264.881 139.592 264.953C139.621 265.024 139.635 265.101 139.632 265.178C139.63 265.255 139.611 265.33 139.578 265.4C139.545 265.47 139.498 265.531 139.44 265.582C135.987 269.147 129.964 269.75 126.321 269.75Z" fill="white"/>
<path d="M118.275 58.139L117.068 51.1769L110.854 55.267C110.287 54.1496 109.482 53.1694 108.496 52.395L111.469 44.349L105.881 43.1085L101.791 50.9311C100.312 51.1807 98.8769 51.6477 97.5337 52.3168L95.7568 46.4163L89.1188 51.6351L89.5547 58.5636C88.2029 60.0779 86.977 61.6999 85.8892 63.4136L80.4135 63.1343L76.5692 71.7502L81.2739 73.7618C80.7828 75.5439 80.472 77.3709 80.3464 79.2152L74.3677 84.7133L75.5635 91.6866L81.788 87.5965C82.3525 88.7129 83.1578 89.6901 84.1459 90.4573L81.2292 98.5146L86.8168 99.7438L92.6725 94.0445C94.0247 93.8322 93.6894 91.2843 95.1646 90.5579L96.9414 96.436L103.568 91.2284L103.401 88.5017C104.742 87.0042 109.815 83.7076 110.91 81.9866L112.285 79.7516L116.129 71.1356L114.341 67.8948L112.352 63.6707L118.275 58.139ZM97.9919 81.0591C92.896 85.0598 91.2868 85.9426 90.4263 80.5897C89.5658 75.2369 92.4825 67.1014 97.5784 63.0896C102.674 59.0777 104.619 58.7983 105.535 64.14C106.451 69.4817 103.099 77.1031 97.9919 81.0591Z" fill="#E0E0E0"/>
<path d="M105.926 43.1085L113.179 47.288L109.089 55.0882L101.836 50.9087L105.926 43.1085Z" fill="#F5F5F5"/>
<path d="M124.321 55.3564L118.107 59.4464L110.855 55.267L117.068 51.1769L124.321 55.3564Z" fill="#F5F5F5"/>
<path d="M123.326 75.2816L118.621 73.2813L111.369 69.1018L116.074 71.1021L123.326 75.2816Z" fill="#E0E0E0"/>
<path d="M81.2179 98.5146L88.4705 102.683L91.4431 94.6368L84.1905 90.4573L81.2179 98.5146Z" fill="#E0E0E0"/>
<path d="M104.128 100.615L96.8861 96.4359L95.1093 90.5579L102.362 94.7373L104.128 100.615Z" fill="#E0E0E0"/>
<path d="M125.516 62.3185L124.321 55.3564L118.107 59.4465C117.535 58.3286 116.727 57.3485 115.738 56.5745L118.711 48.5285L113.179 47.288L109.078 55.1106C107.598 55.3602 106.163 55.8272 104.82 56.4963L103.054 50.6182L96.4164 55.837L96.8523 62.7655C95.499 64.2904 94.2731 65.9237 93.1868 67.649L87.6999 67.3696L83.8557 75.9856L88.5604 77.9971C88.0737 79.784 87.763 81.6143 87.6328 83.4617L81.6653 88.8817L82.8611 95.8549L89.0744 91.7648C89.6464 92.8796 90.455 93.8559 91.4435 94.6257L88.471 102.672L94.0585 103.912L98.1486 96.0896C99.6341 95.8427 101.073 95.3717 102.417 94.6927L104.183 100.571L110.821 95.3632L110.385 88.4347C111.737 86.9205 112.963 85.2984 114.051 83.5847L119.538 83.8529L123.382 75.2369L118.61 73.2366C119.105 71.451 119.419 69.6203 119.549 67.7719L125.516 62.3185ZM105.256 85.2833C100.171 89.284 95.2989 88.2 94.3714 82.8583C93.4439 77.5166 96.8299 69.9287 101.926 65.9281C107.022 61.9274 111.883 63.0225 112.81 68.3642C113.738 73.7059 110.352 81.2826 105.256 85.2833Z" fill="#EBEBEB"/>
<path d="M103.054 50.5958L95.8018 46.4163L89.1638 51.6351L96.4164 55.8146L103.054 50.5958Z" fill="#F5F5F5"/>
<path d="M89.1638 51.6351L89.5996 58.5637L96.8522 62.7432L96.4164 55.8146L89.1638 51.6351Z" fill="#E0E0E0"/>
<path d="M93.1868 67.5931L85.9342 63.4136L80.4584 63.1454L87.6998 67.3249L93.1868 67.5931Z" fill="#F5F5F5"/>
<path d="M80.4579 63.1454L76.6136 71.7502L83.8551 75.9297L87.6993 67.3249L80.4579 63.1454Z" fill="#E0E0E0"/>
<path d="M87.6326 83.3946L80.3911 79.2151L74.4125 84.7133L81.6539 88.8928L87.6326 83.3946Z" fill="#F5F5F5"/>
<path d="M82.8608 95.866L75.6082 91.6866L74.4125 84.7133L81.6539 88.8928L82.8608 95.866Z" fill="#E0E0E0"/>
<path d="M113.179 47.288L105.926 43.1085L111.469 44.349L118.711 48.5284L113.179 47.288Z" fill="#F5F5F5"/>
<path d="M85.8 26.5359V16.1319L77.5193 19.8643C77.0807 18.0992 76.3232 16.429 75.2843 14.9361L80.503 4.42038L74.1332 0.743774L67.6293 10.522C65.8169 10.3636 63.9907 10.5417 62.243 11.0472L61.3266 2.00656L52.3195 7.21415L51.4143 17.2717C49.4541 19.0087 47.6515 20.9159 46.0279 22.971L39.524 20.736L33.1542 31.777L38.3618 36.247C37.3996 38.6804 36.6517 41.1931 36.1268 43.7567L27.8461 49.5789V59.994L36.1268 56.2616C36.5654 58.0267 37.3228 59.6969 38.3618 61.1898L33.1766 71.7167L39.5464 75.3933L46.0503 65.6151C47.8627 65.7729 49.6888 65.5949 51.4367 65.0899L52.3418 74.1305L61.349 68.9229L62.2653 58.8654C65.0766 57.8396 67.567 56.0894 69.4844 53.7919L74.1556 55.4346L80.5254 44.4048L76.6141 41.0523C77.4632 38.2567 77.7778 35.3261 77.5416 32.4139L85.8 26.5359ZM56.823 52.5291C49.9168 56.5186 45.648 53.6466 45.648 45.7011C45.648 37.7556 51.3584 27.9327 58.2758 23.9432C65.1932 19.9537 69.3727 22.8257 69.3727 30.8383C69.3727 38.8508 63.7404 48.5284 56.823 52.5291Z" fill="#E0E0E0"/>
<path d="M81.3742 4.91208L74.1327 0.743774L67.6288 10.522L74.8703 14.7015L81.3742 4.91208Z" fill="#F5F5F5"/>
<path d="M93.0528 20.3114L85.8002 16.1319L77.5194 19.8644L84.7721 24.0439L93.0528 20.3114Z" fill="#F5F5F5"/>
<path d="M59.5607 78.3099L52.3192 74.1305L51.4141 65.0898L58.6555 69.2693L59.5607 78.3099Z" fill="#E0E0E0"/>
<path d="M33.1432 71.7167L40.3959 75.8962L45.6146 65.3804L38.362 61.2009L33.1432 71.7167Z" fill="#E0E0E0"/>
<path d="M93.0529 30.7712V20.3672L84.7721 24.0662C84.3381 22.2994 83.5803 20.6285 82.5371 19.138L87.7559 8.62223L81.3861 4.93445L74.8822 14.7238C73.0697 14.56 71.2425 14.7381 69.4958 15.249L68.5794 6.18606L59.5723 11.3937L58.656 21.4512C56.6985 23.1911 54.8963 25.098 53.2696 27.1505L46.7657 24.9155L40.3959 35.9565L45.6147 40.4265C44.6473 42.8581 43.8994 45.3713 43.3796 47.9362L35.0989 53.7584V64.1735L43.3796 60.4411C43.8134 62.2079 44.5712 63.8789 45.6147 65.3693L40.3959 75.885L46.7657 79.5616L53.2696 69.7834C55.0821 69.9418 56.9082 69.7637 58.656 69.2582L59.5723 78.2988L68.5794 73.0912L69.4846 63.0337C71.4449 61.2967 73.2474 59.3895 74.871 57.3344L81.3749 59.5694L87.7447 48.5396L82.5259 44.0696C83.493 41.6379 84.2409 39.1247 84.761 36.5599L93.0529 30.7712ZM64.0759 56.7645C57.1585 60.754 51.5486 57.5132 51.5486 49.5342C51.5486 41.5552 57.1362 31.844 64.0759 27.8434C71.0156 23.8427 76.592 27.0946 76.592 35.0736C76.592 43.0526 70.9821 52.7079 64.0759 56.7086V56.7645Z" fill="#EBEBEB"/>
<path d="M46.0281 22.9933L53.2695 27.1728L46.7656 24.9043L39.5242 20.7136L46.0281 22.9933Z" fill="#F0F0F0"/>
<path d="M39.5235 20.7251L33.152 31.7698L40.4022 35.9523L46.7737 24.9076L39.5235 20.7251Z" fill="#F5F5F5"/>
<path d="M33.1432 31.7546L40.3959 35.9341L45.6146 40.4265L38.362 36.2582L33.1432 31.7546Z" fill="#E0E0E0"/>
<path d="M36.1267 43.7678L43.3794 47.9473L35.0986 53.7695L27.846 49.59L36.1267 43.7678Z" fill="#F5F5F5"/>
<path d="M27.846 49.59L35.0986 53.7695V64.1846L27.846 60.0051V49.59Z" fill="#E0E0E0"/>
<path d="M68.5796 6.18607L61.327 2.00659L52.3199 7.21417L59.5613 11.3937L68.5796 6.18607Z" fill="#F5F5F5"/>
<path d="M161.555 304.617L266.601 243.958C266.832 243.877 267.033 243.726 267.175 243.526C267.317 243.325 267.393 243.086 267.393 242.841C267.393 242.595 267.317 242.356 267.175 242.156C267.033 241.956 266.832 241.805 266.601 241.723L256.89 236.136C256.288 235.833 255.624 235.675 254.951 235.675C254.278 235.675 253.614 235.833 253.012 236.136L147.933 296.738C147.701 296.82 147.501 296.971 147.359 297.171C147.217 297.371 147.141 297.61 147.141 297.856C147.141 298.101 147.217 298.34 147.359 298.54C147.501 298.741 147.701 298.892 147.933 298.973L157.678 304.561C158.275 304.872 158.936 305.039 159.61 305.049C160.283 305.059 160.949 304.911 161.555 304.617Z" fill="#E0E0E0"/>
<path d="M263.718 9.76212L168.998 64.453C167.59 65.3719 166.418 66.6095 165.577 68.0656C164.737 69.5217 164.251 71.1554 164.159 72.8343V297.532C164.159 300.616 166.327 301.867 168.998 300.325L263.718 245.634C265.128 244.718 266.301 243.48 267.142 242.024C267.983 240.567 268.468 238.933 268.557 237.253V12.5559C268.557 9.47157 266.4 8.21996 263.718 9.76212Z" fill="#455A64"/>
<path d="M168.998 64.4529L263.718 9.76207C266.109 8.37636 268.087 9.23684 268.49 11.6395C268.266 10.1289 267.726 8.68272 266.903 7.39609C266.081 6.10946 264.995 5.01153 263.718 4.17453L259.784 1.93952C258.285 1.17872 256.627 0.782227 254.946 0.782227C253.264 0.782227 251.606 1.17872 250.107 1.93952L155.376 56.5857C153.949 57.4803 152.772 58.7222 151.956 60.1952L165.578 68.0178C166.394 66.5564 167.572 65.3289 168.998 64.4529Z" fill="#37474F"/>
<path d="M150.514 289.664C150.606 291.343 151.092 292.977 151.933 294.433C152.773 295.889 153.945 297.127 155.353 298.046L159.298 300.281C160.663 300.964 162.158 301.35 163.683 301.416C165.208 301.481 166.73 301.224 168.149 300.661C165.914 301.532 164.137 300.247 164.137 297.487V72.8342C164.193 71.1482 164.682 69.505 165.556 68.0624L151.934 60.2399C151.071 61.6715 150.583 63.2971 150.514 64.9669V289.664Z" fill="#263238"/>
<path d="M171.602 94.3909L261.147 42.7062C262.757 41.7898 264.053 42.5385 264.053 44.3824V210.69C263.999 211.698 263.708 212.679 263.203 213.553C262.698 214.427 261.994 215.169 261.147 215.719L171.635 267.403C170.026 268.331 168.73 267.582 168.73 265.727V99.4197C168.78 98.415 169.067 97.4363 169.566 96.5627C170.065 95.6892 170.762 94.9452 171.602 94.3909Z" fill="white"/>
<path d="M216.357 45.6229C215.863 45.9474 215.452 46.3834 215.157 46.8958C214.862 47.4082 214.691 47.9827 214.659 48.5731C214.659 49.6906 215.419 50.1041 216.357 49.5565C216.854 49.234 217.266 48.7985 217.561 48.2857C217.857 47.7728 218.026 47.1973 218.056 46.6063C218.056 45.5223 217.296 45.0865 216.357 45.6229Z" fill="#37474F"/>
<path d="M216.358 249.512C214.404 250.79 212.779 252.51 211.614 254.533C210.449 256.557 209.777 258.826 209.653 261.157C209.653 265.437 212.659 267.18 216.358 265.034C218.311 263.756 219.935 262.035 221.1 260.013C222.265 257.99 222.937 255.721 223.063 253.39C223.085 249.11 220.068 247.367 216.358 249.512Z" fill="#37474F"/>
<path d="M200.277 62.922C199.295 63.5739 198.48 64.4476 197.898 65.4725C197.315 66.4975 196.982 67.645 196.925 68.8224C196.925 70.9904 198.445 71.8732 200.277 70.7892C201.27 70.1434 202.096 69.2725 202.688 68.2471C203.28 67.2218 203.622 66.0712 203.686 64.8888C203.686 62.7208 202.166 61.838 200.277 62.922Z" fill="#37474F"/>
<path d="M208.625 62.1844C208.625 63.6372 209.742 64.1847 211.05 63.4137L233.4 50.4841C234.092 50.0517 234.673 49.462 235.094 48.7629C235.516 48.0639 235.766 47.2752 235.825 46.4611C235.825 45.0195 234.707 44.4719 233.4 45.243L211.05 58.1726C210.359 58.6038 209.779 59.1918 209.358 59.8888C208.937 60.5858 208.686 61.3722 208.625 62.1844Z" fill="#37474F"/>
<path d="M158.069 101.588C158.862 102.104 159.522 102.8 159.996 103.62C160.47 104.439 160.744 105.359 160.796 106.304C160.796 108.047 159.578 108.751 158.069 107.879C157.279 107.361 156.621 106.664 156.149 105.845C155.678 105.026 155.405 104.107 155.353 103.163C155.353 101.431 156.571 100.727 158.069 101.588Z" fill="#37474F"/>
<path d="M158.069 122.574C158.862 123.091 159.522 123.787 159.996 124.607C160.47 125.426 160.744 126.345 160.796 127.29C160.796 129.022 159.578 129.726 158.069 128.866C157.279 128.348 156.621 127.651 156.149 126.832C155.678 126.012 155.405 125.094 155.353 124.15C155.353 122.407 156.571 121.703 158.069 122.574Z" fill="#37474F"/>
<path d="M157.219 102.012C158.012 102.529 158.672 103.225 159.146 104.044C159.62 104.864 159.894 105.783 159.946 106.728C159.946 108.46 158.728 109.164 157.219 108.304C156.426 107.787 155.766 107.091 155.292 106.272C154.818 105.452 154.544 104.533 154.492 103.588C154.503 101.845 155.722 101.174 157.219 102.012Z" fill="#455A64"/>
<path d="M157.219 122.988C158.014 123.506 158.675 124.204 159.148 125.025C159.622 125.846 159.895 126.768 159.946 127.715C159.946 129.447 158.728 130.151 157.219 129.28C156.424 128.765 155.763 128.069 155.289 127.25C154.815 126.43 154.542 125.509 154.492 124.564C154.503 122.832 155.722 122.128 157.219 122.988Z" fill="#455A64"/>
<path d="M282.179 49.6459C282.179 47.7909 280.882 47.0421 279.273 47.9697L268.556 54.1495L189.761 99.6544C188.914 100.204 188.21 100.946 187.705 101.82C187.2 102.694 186.909 103.675 186.855 104.683V270.946C186.855 272.801 188.152 273.55 189.761 272.622L268.59 227.106L279.273 220.938C280.12 220.388 280.824 219.645 281.329 218.771C281.834 217.898 282.125 216.917 282.179 215.909V49.6459Z" fill="white"/>
<path d="M283.296 49.646C283.367 49.0855 283.27 48.5168 283.019 48.011C282.768 47.5051 282.373 47.0845 281.884 46.8019C281.395 46.5192 280.834 46.387 280.27 46.4218C279.706 46.4566 279.165 46.6568 278.715 46.9975L268.489 52.9091L189.202 98.7269C188.181 99.3712 187.333 100.254 186.729 101.3C186.126 102.345 185.785 103.522 185.738 104.728V270.946C185.693 271.504 185.8 272.064 186.048 272.565C186.296 273.067 186.676 273.492 187.146 273.796C187.546 274.028 188.002 274.148 188.465 274.142C189.12 274.122 189.758 273.933 190.32 273.595L269.663 227.777L279.866 221.887C280.881 221.237 281.725 220.352 282.328 219.308C282.93 218.264 283.274 217.091 283.33 215.886L283.296 49.646ZM268.512 225.866L267.595 226.402L189.247 271.639C189.115 271.74 188.963 271.811 188.8 271.845C188.638 271.88 188.47 271.878 188.308 271.84C188.163 271.751 188.018 271.438 188.018 270.924V104.683C188.075 103.872 188.317 103.084 188.723 102.38C189.13 101.675 189.691 101.072 190.364 100.615L268.635 55.3564L279.81 48.8861C279.941 48.7849 280.094 48.7143 280.256 48.6795C280.419 48.6447 280.587 48.6466 280.748 48.6849C280.894 48.7743 281.039 49.0872 281.039 49.6013V215.909C280.981 216.72 280.74 217.508 280.333 218.212C279.927 218.917 279.366 219.52 278.692 219.976L268.489 225.866H268.512Z" fill="#8AADFD"/>
<path d="M234.517 88.2782C244.575 82.4896 252.677 87.1607 252.677 98.7716C252.677 110.383 244.541 124.474 234.517 130.218C224.493 135.962 216.358 131.336 216.358 119.736C216.358 108.136 224.493 94.0781 234.517 88.2782Z" fill="#8AADFD"/>
<path d="M234.517 97.3971C237.769 95.5196 240.406 97.0395 240.406 100.75C240.296 102.793 239.705 104.783 238.682 106.555C237.658 108.328 236.231 109.834 234.517 110.952C231.265 112.83 228.628 111.31 228.628 107.6C228.738 105.556 229.329 103.567 230.352 101.794C231.375 100.022 232.802 98.515 234.517 97.3971Z" fill="#8AADFD"/>
<path d="M245.994 117.423C245.994 111.254 241.67 108.751 236.317 111.835L232.964 113.769C227.623 116.853 223.287 124.363 223.287 130.531V132.196C226.382 133.213 230.271 132.666 234.462 130.218C239.104 127.355 243.03 123.467 245.939 118.853L245.994 117.423Z" fill="#8AADFD"/>
<path opacity="0.7" d="M234.517 97.3971C237.769 95.5196 240.406 97.0395 240.406 100.75C240.296 102.793 239.705 104.783 238.682 106.555C237.658 108.328 236.231 109.834 234.517 110.952C231.265 112.83 228.628 111.31 228.628 107.6C228.738 105.556 229.329 103.567 230.352 101.794C231.375 100.022 232.802 98.515 234.517 97.3971Z" fill="white"/>
<path opacity="0.7" d="M245.994 117.423C245.994 111.254 241.67 108.751 236.317 111.835L232.964 113.769C227.623 116.853 223.287 124.363 223.287 130.531V132.196C226.382 133.213 230.271 132.666 234.462 130.218C239.104 127.355 243.03 123.467 245.939 118.853L245.994 117.423Z" fill="white"/>
<path d="M199.383 155.753L222.75 142.265C223.868 141.65 224.683 142.142 224.683 143.383V144.154C224.648 144.825 224.455 145.479 224.119 146.062C223.783 146.644 223.314 147.139 222.75 147.506L199.383 160.994C198.321 161.609 197.45 161.106 197.45 159.877V159.106C197.486 158.435 197.68 157.781 198.016 157.199C198.352 156.616 198.82 156.121 199.383 155.753Z" fill="#8AADFD"/>
<path opacity="0.1" d="M199.383 155.753L222.75 142.265C223.868 141.65 224.683 142.142 224.683 143.383V144.154C224.648 144.825 224.455 145.479 224.119 146.062C223.783 146.644 223.314 147.139 222.75 147.506L199.383 160.994C198.321 161.609 197.45 161.106 197.45 159.877V159.106C197.486 158.435 197.68 157.781 198.016 157.199C198.352 156.616 198.82 156.121 199.383 155.753Z" fill="black"/>
<path d="M198.422 172.035L269.116 131.224C269.641 130.911 270.077 131.157 270.077 131.783V140.03C270.057 140.365 269.96 140.69 269.793 140.981C269.626 141.272 269.394 141.52 269.116 141.706L198.422 182.518C197.886 182.831 197.45 182.573 197.45 181.959V173.712C197.469 173.376 197.567 173.049 197.736 172.758C197.905 172.466 198.14 172.219 198.422 172.035Z" fill="#8AADFD"/>
<path opacity="0.2" d="M198.422 172.035L269.116 131.224C269.641 130.911 270.077 131.157 270.077 131.783V140.03C270.057 140.365 269.96 140.69 269.793 140.981C269.626 141.272 269.394 141.52 269.116 141.706L198.422 182.518C197.886 182.831 197.45 182.573 197.45 181.959V173.712C197.469 173.376 197.567 173.049 197.736 172.758C197.905 172.466 198.14 172.219 198.422 172.035Z" fill="white"/>
<path d="M199.383 192.441L222.75 178.953C223.868 178.338 224.683 178.841 224.683 180.07V180.841C224.649 181.513 224.456 182.167 224.12 182.75C223.784 183.333 223.314 183.828 222.75 184.194L199.383 197.682C198.321 198.308 197.45 197.805 197.45 196.565V195.794C197.488 195.123 197.682 194.47 198.018 193.888C198.354 193.306 198.821 192.81 199.383 192.441Z" fill="#8AADFD"/>
<path opacity="0.1" d="M199.383 192.441L222.75 178.953C223.868 178.338 224.683 178.841 224.683 180.07V180.841C224.649 181.513 224.456 182.167 224.12 182.75C223.784 183.333 223.314 183.828 222.75 184.194L199.383 197.682C198.321 198.308 197.45 197.805 197.45 196.565V195.794C197.488 195.123 197.682 194.47 198.018 193.888C198.354 193.306 198.821 192.81 199.383 192.441Z" fill="black"/>
<path d="M198.422 208.723L269.116 167.912C269.641 167.599 270.077 167.856 270.077 168.471V176.718C270.057 177.052 269.96 177.378 269.793 177.669C269.626 177.96 269.394 178.208 269.116 178.394L198.422 219.205C197.886 219.518 197.45 219.272 197.45 218.647V210.399C197.469 210.063 197.567 209.737 197.736 209.445C197.905 209.154 198.14 208.907 198.422 208.723Z" fill="#8AADFD"/>
<path opacity="0.2" d="M198.422 208.723L269.116 167.912C269.641 167.599 270.077 167.856 270.077 168.471V176.718C270.057 177.052 269.96 177.378 269.793 177.669C269.626 177.96 269.394 178.208 269.116 178.394L198.422 219.205C197.886 219.518 197.45 219.272 197.45 218.647V210.399C197.469 210.063 197.567 209.737 197.736 209.445C197.905 209.154 198.14 208.907 198.422 208.723Z" fill="white"/>
<path d="M226.617 213.405L254.555 197.302C255.672 196.676 256.499 197.179 256.499 198.42V207.047C256.462 207.719 256.267 208.374 255.929 208.957C255.591 209.539 255.12 210.034 254.555 210.399L226.617 226.514C225.499 227.128 224.684 226.626 224.684 225.396V216.758C224.722 216.087 224.917 215.435 225.253 214.853C225.589 214.271 226.056 213.775 226.617 213.405Z" fill="#8AADFD"/>
<path opacity="0.1" d="M226.617 213.405L254.555 197.302C255.672 196.676 256.499 197.179 256.499 198.42V207.047C256.462 207.719 256.267 208.374 255.929 208.957C255.591 209.539 255.12 210.034 254.555 210.399L226.617 226.514C225.499 227.128 224.684 226.626 224.684 225.396V216.758C224.722 216.087 224.917 215.435 225.253 214.853C225.589 214.271 226.056 213.775 226.617 213.405Z" fill="black"/>
<path d="M292.773 176.997C292.773 176.997 279.05 158.067 278.246 155.765C277.609 154.066 278.246 151.54 278.447 150.367C278.648 149.194 278.827 146.579 279.028 145.897C279.363 144.623 277.72 144.88 276.793 146.042C275.865 147.204 275.552 149.529 275.072 149.909C274.591 150.289 270.937 144.958 269.026 142.5C267.115 140.041 265.919 138.544 264.746 139.46C263.908 140.119 264.534 141.55 265.919 143.651C266.729 144.782 267.475 145.957 268.154 147.171C268.367 147.629 267.227 147.663 266.612 148.613C266.132 149.35 266.612 150.546 265.942 151.116C265.529 151.43 265.246 151.885 265.147 152.394C265.049 152.903 265.14 153.43 265.405 153.876C266.649 155.829 268.254 157.529 270.132 158.882C272.189 160.302 273.016 160.805 274.234 162.738C275.452 164.671 286.381 184.418 287.119 185.602C287.856 186.787 289.275 189.2 291.432 189.267C293.589 189.335 311.246 174.136 312.151 173.377C315.056 170.952 315.984 170.605 316.476 172.784C316.645 173.559 316.772 174.342 316.855 175.131C317.202 177.902 319.09 187.804 319.09 187.804C319.09 187.804 328.031 192.128 335.373 190.039C342.715 187.949 345.195 184.831 345.195 184.831L341.519 178.841C342.513 176.371 347.106 166.359 348.593 159.352L325.572 155.631C325.103 155.53 324.343 155.34 323.337 155.083C322.074 154.748 318.867 153.641 316.442 155.765C308.53 162.66 292.796 176.997 292.796 176.997" fill="#FFA8A7"/>
<path d="M338.412 293.151L334.288 298.884C336.162 299.759 338.21 300.198 340.278 300.169C343.977 300.303 344.994 299.051 345.128 298.806C345.754 297.465 344.782 295.051 344.513 292.972L338.412 293.151Z" fill="#37474F"/>
<path d="M334.523 296.135C334.523 296.135 329.517 295.811 326.063 295.386C322.61 294.961 319.872 296.638 320.677 298.057C321.482 299.476 323.393 300.661 326.365 301.655C328.902 302.516 331.953 303.13 334.59 303.89C337.227 304.65 339.06 305.645 340.591 305.108C342.301 304.516 343.038 303.834 342.893 302.583C342.52 300.802 342.057 299.042 341.507 297.308L334.523 296.135Z" fill="#37474F"/>
<path d="M345.128 287.396C345.128 287.396 344.502 292.603 344.457 293.721C344.413 294.838 339.373 295.196 338.412 293.151L338.255 286.781L345.128 287.396Z" fill="#F28F8F"/>
<path d="M340.055 290.592L341.854 298.504C341.854 298.504 342.022 299.465 337.91 300.079C333.797 300.694 327.338 297.923 326.232 297.364C325.125 296.805 325.002 295.676 329.048 295.9C333.093 296.123 334.523 296.135 334.523 296.135L333.205 292.637L340.055 290.592Z" fill="#FFA8A7"/>
<path d="M348.526 159.285L351.375 158.491C351.375 158.491 357.332 177.344 357.991 179.165C358.65 180.987 359.399 182.909 358.114 185.155C356.583 187.826 348.526 198.565 348.526 198.565L343.407 193.559L349.218 182.92L344.078 172.527L348.526 159.285Z" fill="#F28F8F"/>
<path d="M319.258 134.8C318.59 133.546 318.251 132.143 318.272 130.722C318.294 129.301 318.675 127.909 319.381 126.676C322.219 121.412 328.544 118.853 336.076 119.826C339.563 120.284 343.675 123.178 345.921 127.503C348.402 132.297 348.637 141.952 349.274 145.606L319.258 134.8Z" fill="#37474F"/>
<path d="M319.057 136.868C319.057 136.868 317.269 140.276 317.582 140.589C318.046 140.86 318.552 141.049 319.08 141.148L319.057 136.868Z" fill="#FFA8A7"/>
<path d="M324.488 126.095C322.543 127.357 319.191 129.682 319.045 137.337C318.889 145.159 320.006 147.741 321.169 148.646C321.951 149.261 326.544 148.948 328.511 148.49C330.477 148.031 336.143 145.226 338.188 140.969C340.591 135.962 340.099 128.676 336.534 126.441C334.72 125.368 332.663 124.774 330.556 124.713C328.449 124.652 326.361 125.128 324.488 126.095Z" fill="#FFA8A7"/>
<path d="M345.128 184.786C348.57 190.15 351.833 194.844 352.549 200.901C354.024 213.629 349.196 228.179 348.157 237.6C350.111 240.279 351.238 243.473 351.398 246.786C351.398 250.686 345.128 287.396 345.128 287.396C345.128 287.396 340.569 288.782 338.256 286.781L333.953 219.25L336.188 211.025L345.128 184.786Z" fill="#8AADFD"/>
<path opacity="0.2" d="M345.128 184.786C348.57 190.15 351.833 194.844 352.549 200.901C354.024 213.629 349.196 228.179 348.157 237.6C350.111 240.279 351.238 243.473 351.398 246.786C351.398 250.686 345.128 287.396 345.128 287.396C345.128 287.396 340.569 288.782 338.256 286.781L333.953 219.25L336.188 211.025L345.128 184.786Z" fill="black"/>
<path d="M333.953 219.25L336.188 211.025C340.468 209.899 344.595 208.259 348.481 206.142C348.481 206.142 346.156 210.377 339.474 212.702L336.021 223.262L335.73 247.456L333.953 219.25Z" fill="#8AADFD"/>
<path opacity="0.3" d="M333.953 219.25L336.188 211.025C340.468 209.899 344.595 208.259 348.481 206.142C348.481 206.142 346.156 210.377 339.474 212.702L336.021 223.262L335.73 247.456L333.953 219.25Z" fill="black"/>
<path d="M345.128 184.786C346.972 187.804 351.375 192.944 350.436 197.895C349.319 203.884 346.078 208.097 336.222 211.025L326.969 244.551C326.969 244.551 331.785 249.021 333.26 253.345C334.735 257.67 340.055 290.614 340.055 290.614C340.055 290.614 338.401 293.307 333.204 292.659C333.204 292.659 315.09 251.311 313.816 248.618C312.269 245.891 311.728 242.708 312.285 239.622C312.855 235.286 318.99 187.826 318.99 187.826L345.128 184.786Z" fill="#8AADFD"/>
<path opacity="0.2" d="M345.128 184.786C346.972 187.804 351.375 192.944 350.436 197.895C349.319 203.884 346.078 208.097 336.222 211.025L326.969 244.551C326.969 244.551 331.785 249.021 333.26 253.345C334.735 257.67 340.055 290.614 340.055 290.614C340.055 290.614 338.401 293.307 333.204 292.659C333.204 292.659 315.09 251.311 313.816 248.618C312.269 245.891 311.728 242.708 312.285 239.622C312.855 235.286 318.99 187.826 318.99 187.826L345.128 184.786Z" fill="black"/>
<path d="M348.526 159.285L325.505 155.563C325.036 155.463 324.276 155.273 323.27 155.016C323.27 155.016 322.287 169.454 316.375 172.762C316.521 173.455 316.644 174.226 316.755 175.109C317.102 177.88 318.99 187.781 318.99 187.781C318.99 187.781 327.93 192.106 335.272 190.016C342.614 187.926 345.095 184.809 345.095 184.809L341.419 178.819C342.447 176.327 347.073 166.314 348.526 159.285Z" fill="#8AADFD"/>
<path opacity="0.7" d="M348.526 159.285L325.505 155.563C325.036 155.463 324.276 155.273 323.27 155.016C323.27 155.016 322.287 169.454 316.375 172.762C316.521 173.455 316.644 174.226 316.755 175.109C317.102 177.88 318.99 187.781 318.99 187.781C318.99 187.781 327.93 192.106 335.272 190.016C342.614 187.926 345.095 184.809 345.095 184.809L341.419 178.819C342.447 176.327 347.073 166.314 348.526 159.285Z" fill="white"/>
<path d="M342.458 176.438C339.4 178.274 336.197 179.855 332.881 181.166C335.891 181.105 338.838 180.291 341.452 178.796L342.458 176.438Z" fill="#8AADFD"/>
<path d="M323.918 126.475C323.918 126.475 322.801 133.738 325.438 138.007C325.438 138.007 326.421 135.113 328.869 135.661C331.316 136.208 331.45 139.438 329.729 141.248C329.292 141.756 328.72 142.13 328.079 142.328C327.439 142.525 326.756 142.539 326.108 142.366C326.108 142.366 325.717 147.618 325.505 152.021C325.293 156.424 324.13 166.023 329.081 169.901C334.031 173.779 346.458 175.142 352.28 167.007C355.521 162.481 351.219 154.479 349.218 145.506C347.375 137.259 346.335 125.033 337.585 123.066C328.835 121.099 323.918 126.475 323.918 126.475Z" fill="#37474F"/>
<path d="M356.024 27.2289L354.181 28.3465C354.335 27.6904 354.421 27.02 354.438 26.3461C354.438 22.6025 351.811 21.0938 348.571 22.9936C347.584 23.5885 346.704 24.3439 345.967 25.2286C345.967 20.1998 342.436 18.1548 338.077 20.6692C335.781 22.1669 333.869 24.185 332.499 26.5596C331.128 28.9342 330.336 31.5985 330.188 34.3363C330.188 34.5933 330.188 34.8392 330.188 35.085C329.065 34.9438 327.929 35.2051 326.98 35.8226C325.273 36.9353 323.852 38.4351 322.832 40.2001C321.813 41.965 321.224 43.9455 321.113 45.9807C321.113 46.4539 321.162 46.9258 321.259 47.3888L320.275 47.9587C317.605 49.5009 315.437 52.507 315.437 54.6638C315.437 56.8206 317.605 57.3346 320.275 55.7813L356.036 35.1633C358.706 33.6211 360.874 30.615 360.874 28.4582C360.874 26.3014 358.695 25.6756 356.024 27.2289Z" fill="#EBEBEB"/>
</svg>
