<svg width="314" height="363" viewBox="0 0 314 363" fill="none" xmlns="http://www.w3.org/2000/svg">
<path d="M272.502 86.4371C235.97 54.5142 186.519 86.4371 138.475 153.615C90.4315 220.792 67.5867 192.521 26.7454 222.129C-14.0959 251.738 -25.0196 373.025 118.873 361.233C262.765 349.442 368.001 169.776 272.502 86.4371Z" fill="#EDF4F8"/>
<path d="M249.367 285.287C233.955 274.523 230.463 254.541 231.072 236.574C231.171 233.582 230.842 230.409 232.269 227.786C233.695 225.162 237.027 223.356 239.711 224.613C241.935 225.661 242.903 228.255 244.15 230.399C245.814 233.256 248.252 235.584 251.183 237.113C253.088 238.111 255.453 238.709 257.338 237.672C259.932 236.245 260.231 232.684 260.211 229.691C260.211 224.125 260.178 218.565 260.112 213.011C259.932 210.029 260.235 207.038 261.009 204.153C261.937 201.32 264.002 198.696 266.825 197.898C269.648 197.1 273.17 198.746 273.808 201.659C273.918 202.893 273.948 204.132 273.898 205.37C273.978 206.617 274.557 207.984 275.724 208.363C276.891 208.742 278.108 207.874 279.006 206.996C282.078 204.003 284.173 200.103 286.119 196.252C288.064 192.401 289.969 188.441 292.763 185.159C295.556 181.877 299.417 179.273 303.736 179.024C308.056 178.774 312.555 181.428 313.632 185.618C314.71 189.807 312.266 194.087 309.642 197.489C305.683 202.538 301.016 206.99 295.785 210.707C294.764 211.264 293.949 212.135 293.461 213.191C292.813 215.186 294.698 217.181 296.663 217.81C298.888 218.548 301.302 218.319 303.646 218.598C305.991 218.877 308.485 219.895 309.372 222.089C310.59 225.142 308.036 228.334 305.532 230.429C300.504 234.619 294.795 237.916 288.653 240.176C286.458 240.974 284.153 241.682 282.378 243.218C280.602 244.755 279.545 247.438 280.612 249.543C281.679 251.648 284.423 252.316 286.727 251.887C289.032 251.459 291.077 250.222 293.271 249.394C297.371 247.847 302.659 248.127 305.242 251.668C306.043 252.888 306.55 254.277 306.723 255.726C306.896 257.174 306.731 258.644 306.24 260.018C305.242 262.753 303.705 265.259 301.721 267.39C295.187 275.196 286.698 281.128 277.12 284.578C267.613 287.871 258.805 288.768 249.358 285.307" fill="#91B1FF"/>
<path d="M309.243 181.488C309.243 181.488 309.154 181.587 308.954 181.767L308.066 182.555C307.288 183.253 306.141 184.271 304.694 185.618C300.593 189.426 296.785 193.537 293.302 197.918C291.077 200.681 288.773 203.814 286.319 207.215C283.865 210.617 281.331 214.288 278.817 218.189C276.137 222.302 273.682 226.558 271.465 230.938C270.307 233.223 269.29 235.607 268.242 238.041L265.15 245.473C261.074 254.834 257.523 264.416 254.516 274.174C252.093 282.157 250.423 290.35 249.528 298.645C248.947 304.242 248.854 309.88 249.248 315.494C249.408 317.489 249.558 319.015 249.697 320.053C249.757 320.552 249.797 320.951 249.837 321.24V321.649C249.794 321.519 249.764 321.386 249.747 321.25C249.697 320.961 249.637 320.572 249.558 320.073C249.378 319.075 249.188 317.499 249.009 315.504C248.528 309.879 248.561 304.223 249.109 298.605C249.949 290.274 251.582 282.044 253.987 274.024C256.969 264.239 260.51 254.633 264.591 245.253L267.764 237.851C268.811 235.427 269.839 233.023 271.006 230.729C273.239 226.335 275.713 222.069 278.418 217.949C280.972 213.959 283.545 210.348 285.97 206.976C288.394 203.604 290.738 200.452 292.953 197.698C296.471 193.329 300.331 189.246 304.495 185.488C305.971 184.161 307.148 183.164 307.947 182.495L308.874 181.747C308.988 181.648 309.112 181.561 309.243 181.488Z" fill="#263238"/>
<path d="M271.135 230.709C270.995 230.298 270.898 229.873 270.846 229.442C270.686 228.614 270.507 227.447 270.297 225.93C269.868 222.938 269.429 218.837 268.961 214.298C268.492 209.759 267.963 205.649 267.524 202.686C267.295 201.21 267.095 200.023 266.955 199.195C266.846 198.771 266.789 198.336 266.786 197.898C266.958 198.298 267.081 198.716 267.155 199.145C267.374 199.963 267.624 201.14 267.903 202.627C268.472 205.619 269.03 209.69 269.499 214.239C269.968 218.788 270.367 222.778 270.676 225.88C270.826 227.277 270.956 228.464 271.055 229.412C271.133 229.84 271.16 230.275 271.135 230.709Z" fill="#263238"/>
<path d="M309.522 223.546C309.037 223.652 308.543 223.712 308.046 223.726C307.048 223.815 305.632 223.935 303.876 224.135C300.365 224.514 295.536 225.212 290.239 226.21C284.942 227.207 280.183 228.334 276.762 229.202C275.056 229.641 273.679 230.04 272.771 230.31C272.287 230.482 271.785 230.602 271.275 230.669C271.736 230.437 272.217 230.247 272.711 230.1C273.649 229.771 275.006 229.312 276.702 228.823C280.104 227.826 284.862 226.639 290.179 225.621C294.683 224.76 299.228 224.127 303.796 223.726C305.562 223.576 306.989 223.516 307.986 223.496C308.499 223.461 309.013 223.478 309.522 223.546Z" fill="#263238"/>
<path d="M254.475 273.326C254.368 273.181 254.281 273.024 254.215 272.857L253.557 271.47C252.988 270.263 252.22 268.477 251.302 266.293C249.447 261.903 247.083 255.758 244.569 248.935C242.055 242.111 239.74 235.966 237.985 231.527C237.127 229.372 236.418 227.606 235.89 226.289L235.331 224.863C235.253 224.698 235.2 224.524 235.171 224.344C235.278 224.488 235.365 224.646 235.431 224.813L236.089 226.199C236.648 227.407 237.426 229.192 238.344 231.377C240.199 235.766 242.563 241.912 245.077 248.735C247.591 255.559 249.906 261.704 251.661 266.143C252.519 268.298 253.228 270.063 253.746 271.38C253.976 271.949 254.165 272.378 254.315 272.807C254.393 272.971 254.446 273.146 254.475 273.326Z" fill="#263238"/>
<path d="M305.431 256.895C305.272 256.987 305.1 257.057 304.922 257.105L303.446 257.604L297.989 259.369C293.38 260.866 287.016 263.001 280.033 265.355C273.05 267.709 266.655 269.804 262.016 271.201C259.702 271.909 257.816 272.448 256.509 272.807L255.003 273.196C254.828 273.252 254.647 273.288 254.464 273.306C254.624 273.214 254.795 273.144 254.973 273.096L256.45 272.597L261.906 270.832C266.515 269.335 272.88 267.2 279.863 264.846C286.846 262.492 293.231 260.397 297.87 259C300.194 258.292 302.069 257.753 303.386 257.394L304.893 257.005C305.068 256.949 305.248 256.913 305.431 256.895Z" fill="#263238"/>
<path d="M265.476 20.91L260.339 22.7456L258.134 16.0318C254.084 3.6517 241.175 -2.92241 229.314 1.25749C217.452 5.43739 211.137 19.0146 215.188 31.3947L217.392 38.1085L212.235 39.954C210.268 40.7168 208.671 42.2082 207.776 44.1181C206.88 46.028 206.755 48.2095 207.426 50.2092L221.722 93.8937C222.019 94.8836 222.511 95.8038 223.171 96.5995C223.83 97.3953 224.643 98.0504 225.56 98.5259C226.478 99.0015 227.482 99.2877 228.512 99.3677C229.542 99.4476 230.578 99.3196 231.558 98.9914L284.799 79.9474C286.792 79.1859 288.412 77.6813 289.318 75.7501C290.224 73.8189 290.346 71.6116 289.658 69.5924L275.352 25.9079C275.048 24.9208 274.548 24.0051 273.882 23.2154C273.216 22.4258 272.397 21.7784 271.475 21.312C270.554 20.8455 269.547 20.5695 268.517 20.5005C267.486 20.4314 266.452 20.5707 265.476 20.91ZM224.894 27.8931C223.802 24.6741 223.998 21.1574 225.441 18.0797C226.884 15.002 229.462 12.6022 232.636 11.383C234.202 10.847 235.861 10.632 237.513 10.7509C239.165 10.8699 240.775 11.3204 242.249 12.0754C243.723 12.8305 245.03 13.8747 246.091 15.1458C247.153 16.4168 247.947 17.8887 248.427 19.4735L250.622 26.1873L227.089 34.6069L224.894 27.8931ZM254.822 66.6595L258.473 77.8125C258.54 78.0362 258.519 78.277 258.413 78.4851C258.307 78.6932 258.125 78.8524 257.904 78.9298L252.787 80.7554C252.583 80.8119 252.366 80.7873 252.18 80.6869C251.994 80.5865 251.854 80.418 251.789 80.2167L248.108 69.1135C246.078 69.003 244.131 68.2749 242.526 67.0269C240.922 65.7789 239.737 64.0705 239.13 62.1304C238.262 59.5655 238.42 56.7645 239.571 54.3137C240.723 51.8628 242.777 49.9524 245.305 48.9822C246.553 48.5557 247.874 48.3849 249.19 48.48C250.505 48.575 251.788 48.9339 252.962 49.5352C254.136 50.1366 255.177 50.9682 256.022 51.9803C256.868 52.9925 257.501 54.1645 257.885 55.4266C258.526 57.3974 258.579 59.5126 258.037 61.5131C257.495 63.5136 256.381 65.3125 254.832 66.6894L254.822 66.6595Z" fill="#91B1FF"/>
<path d="M260.109 22.6259C260.109 22.7655 250.582 26.3469 238.731 30.6066C226.88 34.8663 217.213 38.288 217.163 38.1883C217.113 38.0885 226.69 34.4772 238.551 30.2075C250.413 25.9379 260.06 22.4962 260.109 22.6259Z" fill="#263238"/>
<path d="M271.422 24.4614C271.466 24.548 271.502 24.6381 271.531 24.7308C271.611 24.9303 271.701 25.1897 271.821 25.5089C272.08 26.2371 272.439 27.2447 272.888 28.5017L276.719 39.6547C278.315 44.3833 280.22 49.9897 282.335 56.2147C283.333 59.3372 284.51 62.5893 285.607 66.011C286.195 67.7743 286.448 69.6316 286.356 71.4878C286.271 72.4532 285.996 73.3923 285.547 74.2511C285.068 75.1071 284.428 75.8625 283.662 76.4757C282.121 77.6008 280.41 78.473 278.594 79.0595L273.457 80.9051L263.73 84.3866L247.26 90.2525L236.137 94.163L233.144 95.1606L232.346 95.42C232.261 95.4579 232.17 95.4815 232.077 95.4898C232.077 95.4898 232.156 95.4898 232.326 95.3701L233.104 95.0608L236.097 93.9336L247.16 89.8634L263.601 83.8779L273.307 80.3664L278.445 78.5108C280.209 77.9482 281.87 77.1025 283.363 76.0069C284.075 75.4378 284.671 74.7367 285.119 73.9419C285.541 73.1476 285.796 72.2749 285.867 71.3781C285.959 69.5896 285.715 67.7997 285.148 66.1008C284.071 62.709 282.934 59.4269 281.906 56.3045C279.831 50.0696 277.916 44.4431 276.4 39.7146C274.883 34.986 273.606 31.1852 272.728 28.5116C272.309 27.2048 271.99 26.1873 271.731 25.449L271.491 24.651C271.461 24.5905 271.438 24.527 271.422 24.4614Z" fill="#263238"/>
<path d="M243.33 10.7046C243.33 10.7046 242.801 10.4453 241.824 10.0462C240.43 9.51079 238.956 9.21401 237.464 9.16834C235.252 9.0925 233.051 9.50817 231.02 10.3854C228.549 11.4777 226.437 13.2446 224.925 15.4831C223.402 17.7152 222.586 20.3531 222.58 23.0548C222.601 25.2692 222.937 27.4693 223.578 29.589C224.096 31.4046 224.635 32.8511 224.994 33.8587C225.206 34.3705 225.38 34.8973 225.513 35.4349C225.23 34.9564 224.993 34.452 224.805 33.9285C224.396 32.9309 223.807 31.5144 223.229 29.6888C222.518 27.5468 222.132 25.3109 222.081 23.0548C222.055 20.251 222.891 17.5068 224.476 15.1938C226.04 12.8735 228.239 11.052 230.81 9.94646C232.905 9.06443 235.175 8.67534 237.444 8.80921C238.969 8.8869 240.466 9.24186 241.864 9.85668C242.237 10.029 242.597 10.2291 242.941 10.4552C243.083 10.5176 243.214 10.6017 243.33 10.7046Z" fill="#263238"/>
<path d="M243.788 49.7404C243.947 49.6439 244.114 49.5605 244.287 49.491C244.786 49.2657 245.303 49.0821 245.833 48.9423C246.674 48.6941 247.541 48.5468 248.417 48.5034C249.608 48.4394 250.799 48.6193 251.918 49.0321C254.472 49.9299 256.817 52.5336 257.974 56.0152C258.529 57.8836 258.529 59.873 257.974 61.7414C257.358 63.7693 256.256 65.6154 254.762 67.1184L254.821 66.8491C256.148 70.4903 257.595 74.4407 259.091 78.5608L259.181 78.8102L258.932 78.8999L256.647 79.6581L251.659 81.3241L251.41 81.4039L251.33 81.1545C249.963 77.0245 248.467 73.1738 247.339 69.3929L247.559 69.5625C245.609 69.4005 243.749 68.6685 242.212 67.4576C240.821 66.3863 239.68 65.0245 238.87 63.4672C238.139 62.0862 237.774 60.5403 237.813 58.9781C237.859 57.3814 238.257 55.8146 238.98 54.3901C239.703 52.9655 240.731 51.7184 241.992 50.738C242.512 50.3166 243.094 49.9799 243.718 49.7404C243.155 50.0747 242.609 50.4377 242.082 50.8278C240.697 51.9998 239.636 53.5077 239 55.2072C238.454 56.4887 238.199 57.8752 238.252 59.2671C238.306 60.659 238.666 62.0218 239.309 63.2577C240.106 64.7559 241.219 66.063 242.571 67.0885C244.038 68.2395 245.81 68.9334 247.669 69.0837H247.838L247.888 69.2333C248.986 72.9443 250.492 76.825 251.879 80.9749L251.549 80.8153L256.537 79.1493L258.812 78.3812L258.652 78.7204C257.166 74.6003 255.729 70.6399 254.412 66.9987V66.8491L254.532 66.7293C255.982 65.2887 257.064 63.5195 257.685 61.5718C258.214 59.7846 258.214 57.8823 257.685 56.095C256.597 52.7431 254.353 50.1993 251.918 49.3014C250.841 48.886 249.691 48.6926 248.537 48.7328C247.675 48.7526 246.818 48.8697 245.983 49.082C244.496 49.4511 243.798 49.7903 243.788 49.7404Z" fill="#263238"/>
<rect x="51.1679" y="44.6593" width="217.472" height="276.33" rx="13.5" fill="white" stroke="#91B1FF"/>
<path d="M193.068 288.888L119.127 288.569C118.359 288.569 117.74 287.731 117.75 286.713L117.83 267.37C117.83 266.372 118.459 265.514 119.227 265.514L193.168 265.854C193.594 265.927 193.975 266.162 194.231 266.51C194.488 266.857 194.6 267.291 194.545 267.719L194.475 287.042C194.475 288.07 193.836 288.898 193.068 288.888Z" fill="#91B1FF"/>
<path d="M143.961 276.565C143.927 276.272 143.786 276.045 143.54 275.883C143.293 275.722 142.991 275.641 142.633 275.641C142.371 275.641 142.142 275.683 141.946 275.768C141.751 275.853 141.599 275.969 141.49 276.117C141.382 276.265 141.328 276.434 141.328 276.623C141.328 276.78 141.365 276.916 141.441 277.03C141.518 277.141 141.616 277.235 141.735 277.31C141.854 277.383 141.98 277.444 142.11 277.492C142.241 277.538 142.362 277.575 142.471 277.604L143.072 277.766C143.226 277.806 143.397 277.862 143.586 277.934C143.777 278.005 143.958 278.102 144.132 278.225C144.307 278.346 144.451 278.502 144.565 278.693C144.678 278.884 144.735 279.117 144.735 279.395C144.735 279.714 144.651 280.003 144.484 280.261C144.318 280.519 144.076 280.724 143.756 280.876C143.439 281.028 143.053 281.104 142.598 281.104C142.175 281.104 141.808 281.036 141.498 280.899C141.19 280.762 140.948 280.572 140.771 280.327C140.595 280.083 140.496 279.799 140.473 279.475H141.212C141.232 279.699 141.307 279.884 141.438 280.03C141.57 280.174 141.738 280.282 141.94 280.353C142.144 280.423 142.364 280.457 142.598 280.457C142.872 280.457 143.117 280.413 143.335 280.324C143.552 280.234 143.725 280.109 143.852 279.949C143.979 279.787 144.042 279.599 144.042 279.383C144.042 279.187 143.987 279.027 143.878 278.904C143.768 278.781 143.623 278.68 143.444 278.603C143.265 278.526 143.072 278.459 142.864 278.401L142.136 278.193C141.674 278.061 141.309 277.871 141.039 277.625C140.77 277.378 140.635 277.056 140.635 276.657C140.635 276.326 140.724 276.037 140.903 275.791C141.084 275.543 141.327 275.35 141.631 275.213C141.937 275.075 142.279 275.006 142.656 275.006C143.037 275.006 143.376 275.074 143.673 275.211C143.969 275.345 144.204 275.53 144.377 275.765C144.552 276 144.645 276.266 144.654 276.565H143.961ZM146.629 275.086V281H145.913V275.086H146.629ZM152.107 276.934C152.044 276.74 151.96 276.566 151.856 276.412C151.754 276.256 151.632 276.123 151.489 276.013C151.349 275.904 151.189 275.82 151.01 275.762C150.831 275.704 150.634 275.675 150.421 275.675C150.07 275.675 149.752 275.766 149.465 275.947C149.178 276.128 148.95 276.394 148.781 276.747C148.611 277.099 148.527 277.531 148.527 278.043C148.527 278.555 148.612 278.987 148.783 279.34C148.955 279.692 149.187 279.959 149.479 280.14C149.772 280.321 150.101 280.411 150.467 280.411C150.806 280.411 151.104 280.339 151.362 280.194C151.622 280.048 151.824 279.842 151.968 279.577C152.115 279.309 152.188 278.994 152.188 278.632L152.407 278.678H150.629V278.043H152.881V278.678C152.881 279.166 152.777 279.589 152.569 279.949C152.363 280.309 152.078 280.588 151.714 280.786C151.352 280.983 150.937 281.081 150.467 281.081C149.943 281.081 149.483 280.958 149.087 280.711C148.692 280.465 148.384 280.115 148.163 279.66C147.943 279.206 147.833 278.667 147.833 278.043C147.833 277.575 147.896 277.155 148.021 276.781C148.148 276.406 148.327 276.086 148.558 275.823C148.789 275.559 149.063 275.357 149.378 275.216C149.694 275.076 150.041 275.006 150.421 275.006C150.733 275.006 151.023 275.053 151.293 275.147C151.564 275.239 151.806 275.371 152.018 275.543C152.231 275.712 152.409 275.915 152.552 276.152C152.694 276.387 152.792 276.648 152.846 276.934H152.107ZM158.797 275.086V281H158.104L154.881 276.357H154.823V281H154.107V275.086H154.8L158.034 279.741H158.092V275.086H158.797ZM166.397 275.086H167.114V279.002C167.114 279.406 167.018 279.767 166.828 280.085C166.639 280.4 166.372 280.65 166.028 280.833C165.683 281.014 165.279 281.104 164.815 281.104C164.351 281.104 163.947 281.014 163.602 280.833C163.258 280.65 162.99 280.4 162.8 280.085C162.611 279.767 162.517 279.406 162.517 279.002V275.086H163.233V278.944C163.233 279.233 163.296 279.49 163.423 279.715C163.55 279.938 163.731 280.115 163.966 280.244C164.203 280.371 164.486 280.434 164.815 280.434C165.144 280.434 165.427 280.371 165.664 280.244C165.901 280.115 166.082 279.938 166.207 279.715C166.334 279.49 166.397 279.233 166.397 278.944V275.086ZM168.544 281V275.086H170.542C171.006 275.086 171.385 275.17 171.679 275.338C171.976 275.503 172.195 275.727 172.338 276.01C172.48 276.293 172.551 276.609 172.551 276.958C172.551 277.306 172.48 277.623 172.338 277.908C172.197 278.192 171.98 278.42 171.685 278.589C171.391 278.756 171.013 278.84 170.553 278.84H169.121V278.205H170.53C170.848 278.205 171.103 278.15 171.295 278.04C171.488 277.931 171.627 277.782 171.714 277.596C171.803 277.407 171.847 277.194 171.847 276.958C171.847 276.721 171.803 276.509 171.714 276.322C171.627 276.136 171.487 275.989 171.293 275.883C171.098 275.776 170.84 275.722 170.519 275.722H169.26V281H168.544Z" fill="#E8E8E3"/>
<path d="M133.876 118.829L108.219 118.713L108.197 123.421L133.855 123.538L133.876 118.829Z" fill="#91B1FF"/>
<path opacity="0.1" d="M133.876 118.829L108.219 118.713L108.197 123.421L133.855 123.538L133.876 118.829Z" fill="black"/>
<path d="M209.09 147.739C209.291 147.719 209.489 147.672 209.679 147.6C209.955 147.492 210.195 147.308 210.371 147.07C210.548 146.832 210.653 146.548 210.676 146.253C210.676 144.667 210.676 142.352 210.676 139.379C210.676 137.893 210.676 136.227 210.676 134.392C210.676 133.943 210.676 133.474 210.676 133.005C210.741 132.55 210.642 132.087 210.397 131.698C210.259 131.512 210.081 131.36 209.875 131.254C209.669 131.149 209.441 131.092 209.21 131.089H207.653H193.238L109.8 130.78C109.586 130.777 109.375 130.825 109.184 130.92C108.993 131.016 108.828 131.156 108.703 131.329C108.462 131.719 108.37 132.183 108.443 132.636C108.443 133.633 108.443 134.631 108.443 135.629C108.443 137.624 108.443 139.619 108.443 141.614C108.443 142.612 108.443 143.609 108.443 144.607C108.402 145.071 108.402 145.539 108.443 146.003C108.496 146.203 108.593 146.387 108.728 146.543C108.863 146.698 109.032 146.821 109.221 146.901C109.418 146.98 109.628 147.017 109.84 147.011H114.918L137.074 147.131L174.583 147.36L199.872 147.56L206.746 147.639H208.531C208.94 147.639 209.14 147.639 209.14 147.639H208.531H206.746H199.872H174.583L137.074 147.52L114.918 147.43H109.84C109.56 147.441 109.282 147.394 109.022 147.29C108.759 147.178 108.525 147.008 108.339 146.792C108.152 146.575 108.017 146.32 107.944 146.043C107.887 145.782 107.866 145.513 107.885 145.245V144.507C107.885 143.509 107.885 142.512 107.885 141.514C107.885 139.519 107.885 137.524 107.885 135.529C107.885 134.531 107.885 133.534 107.885 132.536C107.865 132.27 107.865 132.004 107.885 131.738C107.922 131.444 108.035 131.166 108.214 130.93C108.386 130.689 108.614 130.493 108.878 130.36C109.142 130.226 109.434 130.158 109.73 130.162L193.168 130.621L207.584 130.72H209.14C209.414 130.721 209.684 130.787 209.927 130.914C210.17 131.04 210.379 131.224 210.536 131.449C210.818 131.882 210.931 132.404 210.856 132.915C210.856 133.384 210.856 133.853 210.856 134.302C210.856 136.117 210.856 137.783 210.856 139.29C210.856 142.282 210.786 144.577 210.766 146.173C210.742 146.48 210.63 146.773 210.444 147.019C210.259 147.265 210.007 147.452 209.718 147.56C209.53 147.677 209.312 147.739 209.09 147.739Z" fill="#E0E0E0"/>
<path d="M162.852 135.788H115.925V140.187H162.852V135.788Z" fill="#91B1FF"/>
<path opacity="0.2" d="M162.852 135.788H115.925V140.187H162.852V135.788Z" fill="white"/>
<path d="M133.701 161.784L108.044 161.668L108.022 166.376L133.68 166.493L133.701 161.784Z" fill="#91B1FF"/>
<path opacity="0.1" d="M133.701 161.784L108.044 161.668L108.022 166.376L133.68 166.493L133.701 161.784Z" fill="black"/>
<path d="M208.442 190.695C208.644 190.671 208.844 190.634 209.041 190.586C209.319 190.497 209.576 190.349 209.793 190.153C210.009 189.957 210.182 189.717 210.298 189.448C210.455 189.046 210.516 188.612 210.477 188.181C210.477 187.702 210.477 187.184 210.477 186.605C210.477 185.448 210.477 184.131 210.477 182.615V176.28C210.525 175.821 210.423 175.36 210.188 174.963C209.942 174.557 209.555 174.255 209.101 174.115C208.604 174.027 208.098 174 207.594 174.036H193.239L110.09 173.726C109.643 173.727 109.211 173.891 108.875 174.186C108.539 174.482 108.322 174.889 108.264 175.332C108.264 176.28 108.264 177.328 108.264 178.325C108.264 180.32 108.264 182.316 108.264 184.311C108.264 185.308 108.264 186.306 108.264 187.303C108.227 187.77 108.247 188.239 108.324 188.7C108.449 189.105 108.705 189.456 109.052 189.698C109.421 189.932 109.854 190.043 110.289 190.017H111.676H114.559L136.636 190.127L174.015 190.356L199.214 190.556L206.068 190.635H199.214H174.015L136.616 190.596L114.539 190.516H110.2C109.66 190.548 109.125 190.404 108.673 190.107C108.219 189.792 107.888 189.331 107.736 188.8C107.646 188.293 107.619 187.777 107.656 187.264C107.656 186.266 107.656 185.268 107.656 184.271C107.656 182.276 107.656 180.28 107.656 178.285C107.656 177.288 107.656 176.29 107.656 175.292C107.728 174.722 108.007 174.198 108.438 173.818C108.87 173.438 109.425 173.228 110 173.227L193.149 173.686L207.504 173.796C208.039 173.763 208.576 173.8 209.101 173.906C209.619 174.075 210.056 174.431 210.328 174.903C210.586 175.343 210.697 175.853 210.647 176.36C210.647 176.829 210.647 177.288 210.647 177.747C210.647 179.552 210.647 181.208 210.647 182.735C210.647 184.261 210.647 185.548 210.647 186.725C210.647 187.293 210.647 187.822 210.647 188.311C210.683 188.757 210.611 189.205 210.437 189.618C210.308 189.893 210.121 190.137 209.888 190.333C209.656 190.53 209.384 190.674 209.091 190.755C208.873 190.773 208.653 190.753 208.442 190.695Z" fill="#E0E0E0"/>
<path d="M133.509 206.605L107.851 206.488L107.829 211.197L133.487 211.313L133.509 206.605Z" fill="#91B1FF"/>
<path opacity="0.1" d="M133.509 206.605L107.851 206.488L107.829 211.197L133.487 211.313L133.509 206.605Z" fill="black"/>
<path d="M208.243 235.497C208.444 235.473 208.644 235.437 208.841 235.387C209.119 235.299 209.374 235.153 209.591 234.959C209.807 234.764 209.98 234.526 210.098 234.26C210.255 233.857 210.316 233.424 210.278 232.993C210.278 232.504 210.278 231.996 210.278 231.407C210.278 230.26 210.278 228.933 210.278 227.417V221.082C210.325 220.623 210.224 220.161 209.988 219.765C209.737 219.366 209.351 219.069 208.901 218.927C208.405 218.835 207.899 218.805 207.395 218.837H193.039L109.89 218.528C109.443 218.529 109.011 218.693 108.676 218.988C108.34 219.283 108.123 219.691 108.065 220.134C108.065 221.132 108.065 222.129 108.065 223.127C108.065 225.122 108.065 227.117 108.065 229.112C108.065 230.11 108.065 231.108 108.065 232.105C108.028 232.568 108.048 233.034 108.125 233.492C108.244 233.899 108.502 234.252 108.853 234.489C109.219 234.729 109.654 234.841 110.09 234.809H114.429L136.506 234.928L173.886 235.158L199.085 235.357L205.938 235.437H199.085H173.886L136.506 235.327L114.429 235.238H110.09C109.55 235.274 109.013 235.13 108.563 234.829C108.11 234.514 107.778 234.053 107.626 233.522C107.536 233.015 107.51 232.499 107.546 231.986C107.546 230.988 107.546 229.99 107.546 228.993C107.546 226.998 107.546 225.002 107.546 223.007C107.546 222.01 107.546 221.012 107.546 219.965C107.616 219.395 107.893 218.871 108.323 218.491C108.752 218.11 109.306 217.9 109.88 217.9L193.029 218.358L207.385 218.468C207.919 218.435 208.456 218.472 208.981 218.578C209.499 218.747 209.936 219.103 210.208 219.575C210.466 220.015 210.578 220.525 210.527 221.032C210.527 221.501 210.527 221.97 210.527 222.419C210.527 224.224 210.527 225.88 210.527 227.407C210.527 228.933 210.527 230.22 210.527 231.397C210.527 231.966 210.527 232.494 210.527 232.983C210.565 233.429 210.493 233.878 210.318 234.29C210.188 234.565 210.001 234.809 209.768 235.006C209.536 235.202 209.264 235.346 208.971 235.427C208.737 235.507 208.488 235.531 208.243 235.497Z" fill="#E0E0E0"/>
<path d="M161.85 179.988L114.924 179.775L114.904 184.174L161.83 184.387L161.85 179.988Z" fill="#91B1FF"/>
<path opacity="0.2" d="M161.85 179.988L114.924 179.775L114.904 184.174L161.83 184.387L161.85 179.988Z" fill="white"/>
<path d="M119.168 227.357C119.139 227.758 118.992 228.142 118.747 228.461C118.501 228.779 118.167 229.019 117.787 229.15C117.406 229.281 116.996 229.297 116.606 229.196C116.217 229.096 115.865 228.884 115.595 228.585C115.325 228.287 115.149 227.916 115.088 227.518C115.026 227.121 115.083 226.714 115.252 226.348C115.42 225.982 115.691 225.674 116.033 225.462C116.374 225.249 116.771 225.141 117.173 225.152C117.729 225.183 118.25 225.432 118.624 225.845C118.997 226.257 119.193 226.801 119.168 227.357Z" fill="#91B1FF"/>
<path d="M125.523 227.387C125.542 227.668 125.504 227.95 125.41 228.216C125.316 228.482 125.168 228.725 124.976 228.931C124.783 229.138 124.551 229.302 124.292 229.414C124.034 229.527 123.755 229.585 123.473 229.585C123.191 229.585 122.912 229.527 122.653 229.414C122.395 229.302 122.162 229.138 121.97 228.931C121.778 228.725 121.63 228.482 121.536 228.216C121.442 227.95 121.403 227.668 121.423 227.387C121.403 227.105 121.442 226.823 121.536 226.557C121.63 226.292 121.778 226.048 121.97 225.842C122.162 225.636 122.395 225.471 122.653 225.359C122.912 225.247 123.191 225.189 123.473 225.189C123.755 225.189 124.034 225.247 124.292 225.359C124.551 225.471 124.783 225.636 124.976 225.842C125.168 226.048 125.316 226.292 125.41 226.557C125.504 226.823 125.542 227.105 125.523 227.387Z" fill="#91B1FF"/>
<path d="M131.887 227.417C131.858 227.818 131.711 228.202 131.466 228.52C131.22 228.839 130.886 229.079 130.506 229.21C130.125 229.34 129.715 229.357 129.325 229.256C128.936 229.156 128.584 228.944 128.314 228.645C128.044 228.347 127.867 227.976 127.806 227.578C127.745 227.18 127.802 226.774 127.97 226.408C128.138 226.042 128.41 225.734 128.752 225.522C129.093 225.309 129.49 225.201 129.892 225.212C130.447 225.245 130.966 225.495 131.339 225.907C131.712 226.319 131.909 226.861 131.887 227.417Z" fill="#91B1FF"/>
<path d="M138.241 227.447C138.212 227.848 138.065 228.232 137.82 228.55C137.574 228.869 137.24 229.109 136.86 229.24C136.479 229.37 136.069 229.387 135.679 229.286C135.29 229.186 134.938 228.973 134.668 228.675C134.398 228.377 134.221 228.006 134.16 227.608C134.099 227.21 134.156 226.804 134.324 226.438C134.492 226.072 134.764 225.764 135.106 225.552C135.447 225.339 135.844 225.231 136.246 225.242C136.801 225.275 137.32 225.525 137.693 225.937C138.066 226.349 138.263 226.891 138.241 227.447Z" fill="#91B1FF"/>
<path d="M144.596 227.467C144.568 227.868 144.423 228.253 144.179 228.573C143.934 228.894 143.601 229.135 143.221 229.267C142.84 229.399 142.429 229.417 142.039 229.318C141.649 229.218 141.296 229.007 141.025 228.709C140.754 228.41 140.577 228.039 140.515 227.641C140.453 227.243 140.51 226.836 140.678 226.47C140.845 226.104 141.117 225.795 141.459 225.582C141.801 225.369 142.198 225.261 142.601 225.272C143.154 225.305 143.672 225.554 144.045 225.963C144.417 226.373 144.615 226.913 144.596 227.467Z" fill="#91B1FF"/>
<path d="M150.962 227.497C150.934 227.896 150.791 228.279 150.549 228.599C150.307 228.918 149.976 229.16 149.599 229.294C149.221 229.428 148.813 229.448 148.423 229.353C148.034 229.258 147.681 229.051 147.408 228.758C147.135 228.465 146.953 228.098 146.886 227.703C146.818 227.308 146.868 226.902 147.028 226.535C147.188 226.167 147.452 225.855 147.788 225.636C148.124 225.417 148.516 225.301 148.917 225.302C149.478 225.323 150.009 225.565 150.393 225.977C150.776 226.388 150.981 226.935 150.962 227.497Z" fill="#91B1FF"/>
<path d="M157.315 227.526C157.334 227.807 157.296 228.09 157.202 228.355C157.108 228.621 156.96 228.865 156.767 229.071C156.575 229.277 156.342 229.442 156.084 229.554C155.825 229.666 155.546 229.724 155.265 229.724C154.983 229.724 154.704 229.666 154.445 229.554C154.187 229.442 153.954 229.277 153.762 229.071C153.569 228.865 153.422 228.621 153.327 228.355C153.233 228.09 153.195 227.807 153.215 227.526C153.195 227.245 153.233 226.963 153.327 226.697C153.422 226.431 153.569 226.188 153.762 225.981C153.954 225.775 154.187 225.611 154.445 225.499C154.704 225.386 154.983 225.328 155.265 225.328C155.546 225.328 155.825 225.386 156.084 225.499C156.342 225.611 156.575 225.775 156.767 225.981C156.96 226.188 157.108 226.431 157.202 226.697C157.296 226.963 157.334 227.245 157.315 227.526Z" fill="#91B1FF"/>
<path d="M163.67 227.556C163.642 227.956 163.499 228.339 163.257 228.658C163.015 228.978 162.684 229.219 162.307 229.353C161.929 229.487 161.52 229.508 161.131 229.413C160.742 229.318 160.389 229.111 160.116 228.817C159.843 228.524 159.661 228.158 159.594 227.763C159.526 227.368 159.576 226.962 159.736 226.594C159.896 226.227 160.16 225.915 160.496 225.696C160.832 225.477 161.224 225.36 161.625 225.361C162.186 225.382 162.717 225.625 163.101 226.036C163.484 226.448 163.689 226.994 163.67 227.556Z" fill="#91B1FF"/>
<path d="M170.024 227.586C169.997 227.988 169.852 228.373 169.607 228.693C169.363 229.013 169.03 229.254 168.649 229.387C168.269 229.519 167.858 229.537 167.467 229.437C167.077 229.338 166.725 229.126 166.454 228.828C166.183 228.53 166.005 228.159 165.943 227.761C165.882 227.363 165.938 226.955 166.106 226.589C166.274 226.223 166.546 225.914 166.888 225.701C167.23 225.488 167.627 225.381 168.029 225.391C168.582 225.425 169.1 225.673 169.473 226.083C169.846 226.493 170.044 227.032 170.024 227.586Z" fill="#91B1FF"/>
<g opacity="0.2">
<path d="M119.168 227.357C119.139 227.758 118.992 228.142 118.747 228.461C118.501 228.779 118.167 229.019 117.787 229.15C117.406 229.281 116.996 229.297 116.606 229.196C116.217 229.096 115.865 228.884 115.595 228.585C115.325 228.287 115.149 227.916 115.088 227.518C115.026 227.121 115.083 226.714 115.252 226.348C115.42 225.982 115.691 225.674 116.033 225.462C116.374 225.249 116.771 225.141 117.173 225.152C117.729 225.183 118.25 225.432 118.624 225.845C118.997 226.257 119.193 226.801 119.168 227.357Z" fill="white"/>
<path d="M125.523 227.387C125.543 227.668 125.504 227.95 125.41 228.216C125.316 228.482 125.168 228.725 124.976 228.931C124.784 229.138 124.551 229.302 124.292 229.414C124.034 229.527 123.755 229.585 123.473 229.585C123.191 229.585 122.912 229.527 122.654 229.414C122.395 229.302 122.162 229.138 121.97 228.931C121.778 228.725 121.63 228.482 121.536 228.216C121.442 227.95 121.403 227.668 121.423 227.387C121.403 227.105 121.442 226.823 121.536 226.557C121.63 226.292 121.778 226.048 121.97 225.842C122.162 225.636 122.395 225.471 122.654 225.359C122.912 225.247 123.191 225.189 123.473 225.189C123.755 225.189 124.034 225.247 124.292 225.359C124.551 225.471 124.784 225.636 124.976 225.842C125.168 226.048 125.316 226.292 125.41 226.557C125.504 226.823 125.543 227.105 125.523 227.387Z" fill="white"/>
<path d="M131.887 227.417C131.858 227.818 131.711 228.202 131.466 228.52C131.22 228.839 130.886 229.079 130.506 229.21C130.126 229.34 129.715 229.357 129.325 229.256C128.936 229.156 128.584 228.944 128.314 228.645C128.044 228.347 127.868 227.976 127.807 227.578C127.746 227.18 127.803 226.774 127.971 226.408C128.139 226.042 128.41 225.734 128.752 225.522C129.093 225.309 129.49 225.201 129.892 225.212C130.447 225.245 130.967 225.495 131.34 225.907C131.713 226.319 131.909 226.861 131.887 227.417Z" fill="white"/>
<path d="M138.242 227.446C138.213 227.848 138.066 228.232 137.821 228.55C137.575 228.869 137.241 229.109 136.861 229.239C136.48 229.37 136.07 229.387 135.68 229.286C135.29 229.186 134.939 228.973 134.669 228.675C134.399 228.377 134.222 228.006 134.161 227.608C134.1 227.21 134.157 226.803 134.325 226.438C134.493 226.072 134.765 225.764 135.107 225.551C135.448 225.339 135.845 225.231 136.247 225.242C136.802 225.275 137.321 225.525 137.694 225.937C138.067 226.349 138.264 226.891 138.242 227.446Z" fill="white"/>
<path d="M144.597 227.466C144.569 227.868 144.424 228.253 144.18 228.573C143.935 228.893 143.602 229.135 143.222 229.267C142.841 229.399 142.43 229.417 142.04 229.318C141.65 229.218 141.297 229.006 141.026 228.708C140.755 228.41 140.578 228.039 140.516 227.641C140.454 227.243 140.511 226.836 140.679 226.47C140.846 226.103 141.118 225.795 141.46 225.582C141.802 225.369 142.199 225.261 142.602 225.272C143.155 225.305 143.673 225.553 144.046 225.963C144.418 226.373 144.616 226.913 144.597 227.466Z" fill="white"/>
<path d="M150.962 227.496C150.935 227.896 150.791 228.279 150.549 228.599C150.307 228.918 149.977 229.159 149.599 229.293C149.221 229.427 148.813 229.448 148.423 229.353C148.034 229.258 147.681 229.051 147.408 228.758C147.135 228.465 146.953 228.098 146.886 227.703C146.818 227.308 146.868 226.902 147.028 226.535C147.188 226.167 147.453 225.855 147.788 225.636C148.124 225.417 148.516 225.301 148.917 225.302C149.479 225.323 150.009 225.565 150.393 225.977C150.776 226.388 150.981 226.934 150.962 227.496Z" fill="white"/>
<path d="M157.316 227.526C157.336 227.807 157.298 228.09 157.203 228.355C157.109 228.621 156.961 228.865 156.769 229.071C156.577 229.277 156.344 229.442 156.086 229.554C155.827 229.666 155.548 229.724 155.266 229.724C154.984 229.724 154.705 229.666 154.447 229.554C154.188 229.442 153.956 229.277 153.763 229.071C153.571 228.865 153.423 228.621 153.329 228.355C153.235 228.09 153.197 227.807 153.216 227.526C153.197 227.245 153.235 226.963 153.329 226.697C153.423 226.431 153.571 226.188 153.763 225.981C153.956 225.775 154.188 225.611 154.447 225.499C154.705 225.386 154.984 225.328 155.266 225.328C155.548 225.328 155.827 225.386 156.086 225.499C156.344 225.611 156.577 225.775 156.769 225.981C156.961 226.188 157.109 226.431 157.203 226.697C157.298 226.963 157.336 227.245 157.316 227.526Z" fill="white"/>
<path d="M163.671 227.556C163.644 227.956 163.501 228.339 163.258 228.658C163.016 228.978 162.686 229.219 162.308 229.353C161.931 229.487 161.522 229.508 161.133 229.413C160.744 229.318 160.391 229.111 160.118 228.817C159.844 228.524 159.663 228.158 159.595 227.763C159.528 227.368 159.577 226.962 159.738 226.594C159.898 226.227 160.162 225.915 160.498 225.696C160.833 225.477 161.226 225.36 161.626 225.361C162.188 225.382 162.719 225.625 163.102 226.036C163.486 226.448 163.69 226.994 163.671 227.556Z" fill="white"/>
<path d="M170.025 227.586C169.998 227.988 169.853 228.373 169.608 228.693C169.364 229.013 169.031 229.254 168.65 229.387C168.27 229.519 167.859 229.537 167.468 229.437C167.078 229.338 166.725 229.126 166.455 228.828C166.184 228.53 166.006 228.159 165.944 227.761C165.883 227.363 165.939 226.955 166.107 226.589C166.275 226.223 166.547 225.914 166.889 225.701C167.231 225.488 167.628 225.381 168.03 225.391C168.583 225.425 169.101 225.673 169.474 226.083C169.847 226.493 170.045 227.032 170.025 227.586Z" fill="white"/>
</g>
<path d="M160.997 83.5742C161.69 83.269 162.278 82.7668 162.687 82.13C163.097 81.4932 163.311 80.75 163.301 79.9928C163.327 79.5006 163.252 79.0083 163.082 78.5459C162.911 78.0835 162.648 77.6606 162.309 77.3031C161.97 76.9456 161.561 76.6608 161.108 76.4663C160.656 76.2717 160.168 76.1714 159.675 76.1714C159.182 76.1714 158.694 76.2717 158.241 76.4663C157.789 76.6608 157.38 76.9456 157.041 77.3031C156.702 77.6606 156.439 78.0835 156.268 78.5459C156.098 79.0083 156.023 79.5006 156.049 79.9928C156.034 80.7576 156.245 81.5097 156.657 82.1542C157.069 82.7987 157.663 83.3067 158.363 83.6141C152.777 84.4521 153.026 90.5174 153.026 90.5174L166.234 90.5773C166.234 90.5773 166.543 84.4022 160.997 83.5742Z" fill="#91B1FF"/>
<path opacity="0.1" d="M160.997 83.5742C161.69 83.269 162.278 82.7668 162.687 82.13C163.097 81.4932 163.311 80.75 163.301 79.9928C163.327 79.5006 163.252 79.0083 163.082 78.5459C162.911 78.0835 162.648 77.6606 162.309 77.3031C161.97 76.9456 161.561 76.6608 161.108 76.4663C160.656 76.2717 160.168 76.1714 159.675 76.1714C159.182 76.1714 158.694 76.2717 158.241 76.4663C157.789 76.6608 157.38 76.9456 157.041 77.3031C156.702 77.6606 156.439 78.0835 156.268 78.5459C156.098 79.0083 156.023 79.5006 156.049 79.9928C156.034 80.7576 156.245 81.5097 156.657 82.1542C157.069 82.7987 157.663 83.3067 158.363 83.6141C152.777 84.4521 153.026 90.5174 153.026 90.5174L166.234 90.5773C166.234 90.5773 166.543 84.4022 160.997 83.5742Z" fill="black"/>
<path d="M182.46 94.4892L135.384 94.2756L135.358 99.9019L182.434 100.116L182.46 94.4892Z" fill="#91B1FF"/>
<path opacity="0.2" d="M182.46 94.4892L135.384 94.2756L135.358 99.9019L182.434 100.116L182.46 94.4892Z" fill="white"/>
<path d="M34.4321 135.938H33.9632L32.6065 136.037C31.8723 136.082 31.1422 136.178 30.4218 136.327C29.9552 136.392 29.4923 136.482 29.0351 136.596L27.4889 137.025C24.8571 137.832 22.3739 139.062 20.1366 140.666C17.1806 142.812 14.7124 145.559 12.8941 148.727C11.8254 150.553 10.975 152.498 10.3602 154.523C9.7143 156.723 9.34238 158.995 9.25293 161.286C9.19347 162.49 9.21347 163.697 9.31278 164.898C9.31278 165.506 9.48237 166.115 9.56218 166.733C9.6293 167.357 9.74606 167.974 9.91133 168.579C10.8084 172.582 12.6285 176.32 15.2266 179.495C17.8246 182.67 21.1287 185.193 24.8752 186.865C27.5867 188.035 30.493 188.688 33.4445 188.79C36.4928 188.958 39.5442 188.52 42.4228 187.503L43.3007 187.174H43.4204L43.5201 187.234L56.0997 193.618L55.7306 193.938C54.3839 189.768 53.087 185.727 51.8301 181.847V181.697L51.9398 181.587C54.9914 178.514 57.2568 174.749 58.5438 170.614C59.7095 166.833 60.0497 162.846 59.5414 158.922C59.0893 155.435 57.9681 152.068 56.2394 149.006C54.7493 146.376 52.827 144.015 50.5531 142.023C48.6771 140.446 46.6008 139.125 44.3781 138.092C42.6963 137.367 40.9447 136.816 39.1507 136.446L37.1555 136.117L35.709 136.007L34.8311 135.948H34.5319C34.6313 135.937 34.7317 135.937 34.8311 135.948H35.719L37.1655 136.007L39.1607 136.297C40.977 136.639 42.7524 137.171 44.4579 137.883C46.7188 138.903 48.8326 140.221 50.7427 141.803C53.0583 143.787 55.0214 146.148 56.5487 148.787C58.3264 151.881 59.482 155.294 59.9504 158.832C60.5009 162.817 60.1845 166.873 59.0227 170.724C57.7272 174.945 55.4268 178.79 52.3189 181.927L52.3787 181.667C53.6357 185.548 54.9425 189.588 56.2993 193.748L56.4888 194.357L55.9202 194.067L43.3406 187.693H43.56L42.6622 188.022C39.7282 189.054 36.6204 189.502 33.5143 189.339C30.4993 189.224 27.5322 188.547 24.7654 187.343C19.4879 185.083 15.097 181.155 12.2656 176.16C10.9627 173.854 10.0112 171.366 9.44246 168.778C9.28673 168.158 9.17011 167.528 9.09331 166.893C9.0135 166.264 8.88382 165.646 8.85389 165.027C8.5839 161.478 8.95906 157.909 9.96122 154.493C10.5913 152.44 11.4654 150.471 12.5649 148.627C14.4265 145.43 16.9462 142.666 19.9571 140.517C22.2312 138.908 24.756 137.688 27.429 136.905L28.9952 136.506C29.4562 136.399 29.9224 136.316 30.3919 136.257C31.1197 136.122 31.8567 136.042 32.5965 136.017L33.9632 135.968C34.1186 135.947 34.2753 135.937 34.4321 135.938Z" fill="#91B1FF"/>
<path d="M40.1185 159.201H38.273L34.2826 153.595V149.914C34.2826 149.914 31.4295 149.734 31.7687 154.553C32.1079 159.371 31.7687 158.144 31.7687 158.144C31.7687 158.144 25.7133 158.144 25.2145 158.693C24.7157 159.241 24.6858 165.087 24.616 168.349C24.5778 169.136 24.8034 169.912 25.2571 170.556C25.7107 171.199 26.3664 171.673 27.1199 171.901C27.3311 171.959 27.5492 171.989 27.7684 171.99C29.2847 171.99 36.9961 170.763 36.9961 170.763H40.1784L40.1185 159.201Z" fill="#91B1FF"/>
<path d="M45.3953 158.214L44.258 170.823H41.1057V158.473L45.3953 158.214Z" fill="#91B1FF"/>
</svg>
